<?xml version="1.0" encoding="UTF-8" standalone="no"?><!-- Generator: Gravit.io -->
<svg xmlns="http://www.w3.org/2000/svg" xmlns:xlink="http://www.w3.org/1999/xlink" style="isolation:isolate"
     viewBox="0 0 300 300" width="300pt" height="300pt">
    <defs>
        <clipPath id="_clipPath_N1hKRpaFA8mifoYSphlSeRXkX8YkBsL6">
            <rect width="300" height="300"/>
        </clipPath>
    </defs>
    <g clip-path="url(#_clipPath_N1hKRpaFA8mifoYSphlSeRXkX8YkBsL6)">
        <rect width="300" height="300" style="fill:rgb(0,0,0)" fill-opacity="0"/>
        <rect x="0" y="0" width="300" height="300" transform="matrix(1,0,0,1,0,0)" fill="rgb(32,32,32)"/>
        <g>
            <linearGradient id="_lgradient_8" x1="0" y1="0.5" x2="1" y2="0.5"
                            gradientTransform="matrix(159.558,0,0,92.121,70.141,37.78)" gradientUnits="userSpaceOnUse">
                <stop offset="1.25%" stop-opacity="1" style="stop-color:rgb(255,191,68)"/>
                <stop offset="98.75%" stop-opacity="1" style="stop-color:rgb(255,115,10)"/>
            </linearGradient>
            <path d=" M 189.81 106.25 L 149.92 82.75 L 110.031 106 L 70.141 129.901 L 70.141 83.841 L 110.031 60.811 L 149.92 37.78 L 189.81 60.811 L 229.699 83.841 L 229.699 129.901 L 189.81 106.25 Z "
                  fill="url(#_lgradient_8)"/>
            <linearGradient id="_lgradient_9" x1="0" y1="0.5" x2="1" y2="0.5"
                            gradientTransform="matrix(-159.557,0.554,-0.32,-92.12,230.019,261.942)"
                            gradientUnits="userSpaceOnUse">
                <stop offset="1.6666666666666667%" stop-opacity="1" style="stop-color:rgb(255,191,68)"/>
                <stop offset="97.91666666666666%" stop-opacity="1" style="stop-color:rgb(255,115,10)"/>
            </linearGradient>
            <path d=" M 110.113 193.889 L 150.084 217.25 L 189.892 193.862 L 229.698 169.822 L 229.859 215.882 L 190.049 239.051 L 150.24 262.22 L 110.271 239.328 L 70.302 216.437 L 70.141 170.376 L 110.113 193.889 Z "
                  fill="url(#_lgradient_9)"/>
        </g>
    </g>
</svg>