<?xml version="1.0" encoding="UTF-8" standalone="no"?><!-- Generator: Gravit.io -->
<svg xmlns="http://www.w3.org/2000/svg" xmlns:xlink="http://www.w3.org/1999/xlink" style="isolation:isolate"
     viewBox="0 0 707 300" width="707pt" height="300pt">
    <defs>
        <clipPath id="_clipPath_EIZdbIz62Nm9WjdNmAjESEa70gb5jb82">
            <rect width="707" height="300"/>
        </clipPath>
    </defs>
    <g clip-path="url(#_clipPath_EIZdbIz62Nm9WjdNmAjESEa70gb5jb82)">
        <path d=" M 355.935 37.21 L 376.365 37.21 L 376.365 207.46 L 358.205 207.46 L 355.935 193.84 L 355.935 193.84 Q 350.26 201.558 341.18 205.644 L 341.18 205.644 L 341.18 205.644 Q 332.1 209.73 321.885 209.73 L 321.885 209.73 L 321.885 209.73 Q 307.811 209.73 296.234 202.012 L 296.234 202.012 L 296.234 202.012 Q 284.657 194.294 277.961 181.128 L 277.961 181.128 L 277.961 181.128 Q 271.264 167.962 271.264 152.072 L 271.264 152.072 L 271.264 152.072 Q 271.264 136.636 277.507 123.243 L 277.507 123.243 L 277.507 123.243 Q 283.749 109.85 295.326 101.905 L 295.326 101.905 L 295.326 101.905 Q 306.903 93.96 321.885 93.96 L 321.885 93.96 L 321.885 93.96 Q 331.873 93.96 340.726 97.592 L 340.726 97.592 L 340.726 97.592 Q 349.579 101.224 355.935 108.715 L 355.935 108.715 L 355.935 37.21 L 355.935 37.21 Z  M 325.517 191.57 L 325.517 191.57 Q 333.689 191.57 341.18 187.37 L 341.18 187.37 L 341.18 187.37 Q 348.671 183.171 353.438 174.318 L 353.438 174.318 L 353.438 174.318 Q 358.205 165.465 358.205 152.072 L 358.205 152.072 L 358.205 152.072 Q 358.205 139.587 353.438 130.507 L 353.438 130.507 L 353.438 130.507 Q 348.671 121.427 341.067 116.773 L 341.067 116.773 L 341.067 116.773 Q 333.462 112.12 325.517 112.12 L 325.517 112.12 L 325.517 112.12 Q 310.081 112.12 301.115 123.356 L 301.115 123.356 L 301.115 123.356 Q 292.148 134.593 292.148 152.072 L 292.148 152.072 L 292.148 152.072 Q 292.148 168.87 301.228 180.22 L 301.228 180.22 L 301.228 180.22 Q 310.308 191.57 325.517 191.57 L 325.517 191.57 L 325.517 191.57 Z  M 429.71 209.73 L 429.71 209.73 Q 414.274 209.73 404.854 200.65 L 404.854 200.65 L 404.854 200.65 Q 395.433 191.57 395.433 177.496 L 395.433 177.496 L 395.433 177.496 Q 395.433 156.385 415.409 147.305 L 415.409 147.305 L 415.409 147.305 Q 435.385 138.225 461.944 137.771 L 461.944 137.771 L 461.944 137.771 Q 461.944 122.789 456.156 117.454 L 456.156 117.454 L 456.156 117.454 Q 450.367 112.12 437.655 112.12 L 437.655 112.12 L 437.655 112.12 Q 430.618 112.12 423.581 114.276 L 423.581 114.276 L 423.581 114.276 Q 416.544 116.433 408.372 122.108 L 408.372 122.108 L 405.421 105.537 L 405.421 105.537 Q 412.231 100.316 422.219 97.138 L 422.219 97.138 L 422.219 97.138 Q 432.207 93.96 443.103 93.96 L 443.103 93.96 L 443.103 93.96 Q 457.404 93.96 465.917 98.954 L 465.917 98.954 L 465.917 98.954 Q 474.429 103.948 478.402 115.525 L 478.402 115.525 L 478.402 115.525 Q 482.374 127.102 482.374 147.305 L 482.374 147.305 L 482.374 170.005 L 482.374 170.005 Q 482.374 179.085 483.169 183.738 L 483.169 183.738 L 483.169 183.738 Q 483.963 188.392 486.687 190.889 L 486.687 190.889 L 486.687 190.889 Q 489.411 193.386 495.086 193.386 L 495.086 193.386 L 497.129 193.386 L 493.951 209.73 L 492.362 209.73 L 492.362 209.73 Q 482.828 209.73 477.38 207.914 L 477.38 207.914 L 477.38 207.914 Q 471.932 206.098 469.095 202.693 L 469.095 202.693 L 469.095 202.693 Q 466.257 199.288 463.76 193.386 L 463.76 193.386 L 463.76 193.386 Q 449.686 209.73 429.71 209.73 L 429.71 209.73 L 429.71 209.73 Z  M 433.569 193.386 L 433.569 193.386 Q 441.741 193.386 449.346 189.3 L 449.346 189.3 L 449.346 189.3 Q 456.95 185.214 461.944 178.404 L 461.944 178.404 L 461.944 151.845 L 461.944 151.845 Q 437.428 152.753 426.873 158.314 L 426.873 158.314 L 426.873 158.314 Q 416.317 163.876 416.317 176.361 L 416.317 176.361 L 416.317 176.361 Q 416.317 184.987 420.971 189.186 L 420.971 189.186 L 420.971 189.186 Q 425.624 193.386 433.569 193.386 L 433.569 193.386 L 433.569 193.386 Z  M 516.651 262.394 L 542.302 202.466 L 495.994 96.23 L 518.694 96.23 L 553.425 178.858 L 584.751 96.23 L 607.451 96.23 L 539.351 262.394 L 516.651 262.394 L 516.651 262.394 Z  M 651.489 209.73 L 651.489 209.73 Q 636.507 209.73 629.584 202.012 L 629.584 202.012 L 629.584 202.012 Q 622.66 194.294 622.66 182.944 L 622.66 182.944 L 622.66 37.21 L 643.09 37.21 L 643.09 171.14 L 643.09 171.14 Q 643.09 181.128 644.339 185.668 L 644.339 185.668 L 644.339 185.668 Q 645.587 190.208 649.219 191.797 L 649.219 191.797 L 649.219 191.797 Q 652.851 193.386 661.023 193.386 L 661.023 193.386 L 658.072 209.73 L 651.489 209.73 L 651.489 209.73 Z "
              fill="rgb(32, 32, 32)"/>
        <g>
            <linearGradient id="_lgradient_4" x1="0" y1="0.5" x2="1" y2="0.5"
                            gradientTransform="matrix(159.558,0,0,92.121,37.141,37.235)" gradientUnits="userSpaceOnUse">
                <stop offset="0%" stop-opacity="1" style="stop-color:rgb(255,115,10)"/>
                <stop offset="98.26086956521739%" stop-opacity="1" style="stop-color:rgb(255,191,68)"/>
            </linearGradient>
            <path d=" M 156.81 105.704 L 116.92 82.204 L 77.031 105.454 L 37.141 129.356 L 37.141 83.295 L 77.031 60.265 L 116.92 37.235 L 156.81 60.265 L 196.699 83.295 L 196.699 129.356 L 156.81 105.704 Z "
                  fill="url(#_lgradient_4)"/>
            <linearGradient id="_lgradient_5" x1="0" y1="0.5" x2="1" y2="0.5"
                            gradientTransform="matrix(-159.557,0.554,-0.32,-92.12,197.019,261.397)"
                            gradientUnits="userSpaceOnUse">
                <stop offset="0%" stop-opacity="1" style="stop-color:rgb(255,115,10)"/>
                <stop offset="98.69565217391305%" stop-opacity="1" style="stop-color:rgb(255,191,68)"/>
            </linearGradient>
            <path d=" M 77.113 193.343 L 117.084 216.705 L 156.892 193.316 L 196.698 169.276 L 196.859 215.337 L 157.049 238.505 L 117.24 261.674 L 77.271 238.782 L 37.302 215.891 L 37.141 169.831 L 77.113 193.343 Z "
                  fill="url(#_lgradient_5)"/>
        </g>
    </g>
</svg>