<?xml version="1.0" standalone="no"?>
<!DOCTYPE svg PUBLIC "-//W3C//DTD SVG 20010904//EN"
 "http://www.w3.org/TR/2001/REC-SVG-20010904/DTD/svg10.dtd">
<svg version="1.0" xmlns="http://www.w3.org/2000/svg"
 width="800.000000pt" height="800.000000pt" viewBox="0 0 800.000000 800.000000"
 preserveAspectRatio="xMidYMid meet">
<metadata>
Created by potrace 1.11, written by Peter Selinger 2001-2013
</metadata>
<g transform="translate(0.000000,800.000000) scale(0.100000,-0.100000)"
fill="#000000" stroke="none">
<path d="M3978 7983 c-10 -2 -18 -9 -18 -14 0 -5 -5 -9 -11 -9 -6 0 -63 -31
-127 -69 -93 -55 -412 -239 -730 -422 -18 -11 -151 -87 -295 -171 -144 -83
-282 -162 -307 -176 -25 -13 -49 -28 -55 -32 -8 -6 -51 -30 -150 -84 -11 -6
-22 -13 -25 -16 -3 -3 -16 -11 -30 -19 -14 -8 -94 -54 -178 -103 -85 -48 -158
-88 -163 -88 -5 0 -9 -4 -9 -10 0 -5 -6 -10 -14 -10 -7 0 -19 -7 -26 -15 -7
-8 -16 -12 -21 -9 -5 3 -9 0 -9 -5 0 -6 -4 -11 -9 -11 -5 0 -56 -27 -113 -61
-57 -34 -112 -65 -123 -70 -11 -5 -33 -18 -50 -29 -16 -11 -38 -23 -47 -26
-10 -4 -18 -10 -18 -15 0 -5 -5 -9 -10 -9 -6 0 -54 -26 -108 -57 -53 -31 -114
-66 -134 -77 l-38 -21 0 -817 c0 -721 2 -818 15 -818 8 0 15 4 15 8 0 5 18 17
40 27 22 10 40 22 40 27 0 4 5 8 10 8 6 0 51 25 101 55 50 30 94 55 100 55 5
0 9 5 9 10 0 6 7 10 15 10 8 0 15 3 15 8 0 4 23 18 50 31 28 14 50 29 50 33 0
4 4 8 9 8 6 0 247 142 536 315 290 173 528 315 530 315 2 0 40 23 85 50 45 28
83 50 84 50 2 0 76 43 165 95 89 52 164 95 167 95 3 0 10 5 17 10 7 6 129 79
272 162 143 83 274 159 290 169 17 10 37 22 45 26 8 3 52 29 98 57 76 45 85
49 105 36 12 -7 60 -36 107 -63 47 -27 99 -57 115 -67 17 -9 82 -48 145 -85
63 -38 203 -120 310 -183 107 -63 266 -157 352 -209 87 -51 162 -93 168 -93 5
0 10 -4 10 -10 0 -5 4 -10 9 -10 4 0 116 -64 247 -141 131 -78 248 -147 259
-153 11 -6 22 -13 25 -16 3 -3 21 -14 40 -25 64 -36 282 -165 390 -231 58 -35
119 -70 135 -79 17 -8 42 -23 57 -32 52 -35 138 -83 147 -83 5 0 11 -3 13 -8
3 -8 252 -157 278 -167 14 -5 16 80 15 811 0 806 0 817 -20 829 -11 6 -33 20
-50 31 -16 10 -32 19 -35 19 -11 2 -120 68 -126 76 -3 5 -10 7 -15 4 -5 -4 -9
-1 -9 4 0 6 -6 11 -14 11 -8 0 -16 3 -18 8 -1 4 -19 15 -38 24 -19 10 -64 36
-100 58 -36 22 -72 43 -80 47 -8 4 -69 38 -135 76 -66 39 -136 79 -155 90 -19
10 -76 44 -127 73 -50 30 -96 54 -101 54 -6 0 -12 4 -14 8 -3 8 -58 41 -143
86 -22 11 -42 23 -45 26 -5 5 -27 18 -75 44 -11 6 -22 13 -25 16 -3 3 -16 11
-30 17 -24 12 -92 50 -157 89 -83 51 -126 74 -134 74 -5 0 -9 5 -9 10 0 6 -9
10 -19 10 -11 0 -21 4 -23 8 -3 7 -246 151 -273 161 -5 2 -12 7 -15 10 -6 7
-23 17 -108 62 -31 17 -61 35 -67 39 -5 4 -28 18 -50 31 -110 62 -212 121
-225 129 -17 11 -239 138 -310 178 -25 14 -54 31 -65 38 -20 14 -27 15 -57 7z"/>
<path d="M6820 3275 c-7 -8 -16 -15 -20 -15 -4 0 -110 -62 -236 -138 -126 -76
-240 -145 -254 -153 -14 -8 -27 -16 -30 -19 -5 -5 -27 -18 -75 -44 -11 -6 -22
-14 -25 -17 -3 -3 -33 -21 -67 -40 -35 -18 -63 -37 -63 -41 0 -5 -5 -8 -10 -8
-8 0 -216 -122 -290 -170 -8 -5 -32 -20 -54 -32 -21 -13 -46 -28 -55 -33 -44
-28 -402 -241 -441 -263 -25 -14 -57 -33 -72 -43 -14 -11 -29 -19 -32 -19 -5
0 -153 -87 -206 -121 -8 -5 -23 -12 -32 -15 -10 -4 -18 -10 -18 -15 0 -5 -5
-9 -10 -9 -6 0 -77 -40 -158 -88 -81 -48 -154 -91 -162 -95 -8 -4 -28 -15 -45
-26 -41 -25 -421 -248 -443 -260 -15 -8 -30 -2 -70 25 -29 19 -52 31 -52 28 0
-4 -8 0 -17 8 -10 9 -35 25 -55 37 -57 32 -243 139 -278 161 -93 56 -171 100
-180 100 -5 0 -10 3 -10 8 0 4 -10 12 -23 18 -32 16 -350 201 -362 212 -5 4
-18 11 -27 14 -9 4 -36 19 -60 34 -24 15 -64 39 -89 53 -25 14 -103 60 -172
101 -70 41 -140 81 -155 89 -15 8 -29 17 -32 20 -3 3 -19 13 -35 22 -17 9 -82
47 -145 84 -63 38 -125 73 -137 79 -13 6 -23 14 -23 19 0 4 -4 7 -9 7 -5 0
-71 37 -147 82 -77 45 -149 86 -161 92 -13 6 -23 14 -23 19 0 4 -5 7 -11 7 -9
0 -173 94 -259 149 -14 8 -27 16 -30 16 -3 0 -23 12 -45 26 -22 14 -60 37 -85
50 -25 13 -47 26 -50 29 -3 3 -16 11 -30 19 -14 8 -40 23 -58 34 l-32 19 3
-821 c1 -451 5 -822 7 -824 22 -16 172 -97 180 -97 5 0 10 -4 10 -8 0 -5 16
-14 35 -22 19 -8 35 -17 35 -22 0 -4 4 -8 9 -8 6 0 58 -28 118 -63 59 -35 115
-66 123 -70 8 -4 31 -17 50 -28 54 -32 355 -205 555 -319 99 -56 221 -126 270
-155 50 -29 95 -54 100 -55 6 -1 17 -7 25 -14 8 -7 40 -27 70 -43 30 -17 129
-73 220 -125 91 -52 185 -106 210 -120 25 -14 179 -103 343 -197 164 -94 302
-171 308 -171 5 0 9 -4 9 -10 0 -5 4 -10 9 -10 4 0 45 -20 89 -46 l80 -45 54
33 c29 18 62 39 73 46 11 6 27 15 35 19 8 4 43 24 78 45 34 21 67 38 72 38 6
0 10 4 10 9 0 5 6 11 13 13 20 5 392 221 395 230 2 4 8 8 13 8 6 0 51 24 102
54 51 30 106 62 124 72 18 11 72 42 120 70 48 28 104 60 123 70 19 11 37 22
40 25 3 3 12 8 20 12 8 4 44 25 80 47 36 22 75 44 87 49 12 6 58 33 103 61 45
27 83 50 86 50 2 0 33 18 69 40 36 22 67 40 70 40 3 0 28 15 57 33 29 19 73
45 98 59 25 14 85 48 134 77 49 28 92 51 97 51 4 0 9 4 11 8 2 4 30 23 63 41
86 49 95 54 360 208 l240 140 1 817 c0 450 -3 819 -7 821 -4 3 -12 -2 -19 -10z"/>
</g>
</svg>
