<?xml version="1.0" standalone="no"?>
<!DOCTYPE svg PUBLIC "-//W3C//DTD SVG 20010904//EN"
 "http://www.w3.org/TR/2001/REC-SVG-20010904/DTD/svg10.dtd">
<svg version="1.0" xmlns="http://www.w3.org/2000/svg"
 width="800.000000pt" height="800.000000pt" viewBox="0 0 800.000000 800.000000"
 preserveAspectRatio="xMidYMid meet">
<metadata>
Created by potrace 1.11, written by Peter Selinger 2001-2013
</metadata>
<g transform="translate(0.000000,800.000000) scale(0.100000,-0.100000)"
fill="#000000" stroke="none">
<path d="M2578 7172 l-1418 -817 0 -817 c0 -450 3 -818 6 -818 3 0 335 197
737 439 651 390 2022 1196 2082 1223 24 11 59 -10 2305 -1332 217 -128 400
-235 407 -237 11 -4 13 146 11 803 l-3 808 -255 149 c-578 338 -2444 1417
-2449 1417 -3 -1 -644 -369 -1423 -818z"/>
<path d="M6135 2863 c-385 -233 -1021 -613 -1413 -844 l-714 -420 -726 424
c-400 233 -1010 589 -1356 791 -346 202 -635 370 -642 373 -12 4 -14 -79 -14
-519 0 -289 3 -653 7 -810 l6 -284 26 -16 c736 -428 2696 -1551 2706 -1551 6
0 645 370 1420 821 l1410 820 3 813 c1 447 -1 816 -5 819 -5 4 -323 -184 -708
-417z"/>
</g>
</svg>
