<svg version="1" xmlns="http://www.w3.org/2000/svg" width="400" height="400" viewBox="0 0 300.000000 300.000000"><path d="M132.5 1.1C74.1 8.3 25.1 48.6 7.6 103.9c-5.8 18.5-7 26.3-7 46.1s1.2 27.6 7 46.1c17.9 56.5 67.5 96.5 127.9 103 34.9 3.7 74.3-7.2 103.5-28.8 21.6-16 41.2-41.9 50.6-67.1 2.4-6.2 2.4-6.3 2.4-53.2 0-46.9 0-47-2.4-53.2-9.4-25.2-29-51.1-50.6-67.1-17.1-12.6-39.2-22.3-61.4-26.8-11.8-2.4-33.3-3.3-45.1-1.8zM190.8 61L230 83.5v23.2c0 12.8-.2 23.3-.6 23.3-.3 0-18.2-10.6-39.9-23.6l-39.4-23.5-22.3 12.9c-12.3 7.2-30.2 17.8-39.8 23.6l-17.5 10.7-.3-22.8c-.2-17.3.1-23 1-23.9.7-.6 15.9-9.6 33.8-19.9 17.9-10.3 35-20.3 38-22.1 3-1.8 6.2-3.2 7-3.1.8.1 19.2 10.3 40.8 22.7zm38 155.6c-1.6 1.5-77.6 45.4-78.6 45.4-.4 0-18.6-10.2-40.4-22.8L70 216.5v-22.9c0-19.8.2-22.7 1.5-22.2.8.3 10.1 5.7 20.7 11.9 10.6 6.3 28 16.4 38.6 22.6l19.2 11.2 20.3-12c11.1-6.6 29-17.3 39.7-23.8l19.5-11.9.3 23c.2 17.6-.1 23.3-1 24.2z"/></svg>