<svg version="1" xmlns="http://www.w3.org/2000/svg" width="400" height="400" viewBox="0 0 300.000000 300.000000"><path d="M0 150v150h300V0H0v150zm172.1-99.3c11.2 6.6 28.6 16.6 38.6 22.4L229 83.5v22.8c0 12.6-.3 22.6-.7 22.4-33.2-20-78.1-45.6-79.3-45.2-2.2.9-42.5 24.5-62 36.3l-16.5 10.1-.3-22.6c-.1-12.5.1-23 .6-23.5 2.1-2.1 78.8-45.7 79.8-45.4.5.2 10.2 5.8 21.5 12.3zM230 192.9v22.9l-14.2 8.3c-7.9 4.5-25.9 14.9-40 23.1l-25.7 14.9-28.3-16.3c-15.6-9-33.4-19.3-39.5-22.8L71 216.6v-22.3c0-12.3.2-22.3.5-22.3s12.4 6.9 26.8 15.3 31.9 18.6 39 22.6l12.7 7.3 9.3-5.3c5-2.9 22.9-13.5 39.7-23.6 16.8-10.1 30.6-18.3 30.8-18.3.1 0 .2 10.3.2 22.9z"/></svg>