<?xml version="1.0" encoding="UTF-8" standalone="no"?>
<!DOCTYPE svg PUBLIC "-//W3C//DTD SVG 1.1//EN" "http://www.w3.org/Graphics/SVG/1.1/DTD/svg11.dtd">
<svg width="100%" height="100%" viewBox="0 0 3072 1800" version="1.1" xmlns="http://www.w3.org/2000/svg" xmlns:xlink="http://www.w3.org/1999/xlink" xml:space="preserve" xmlns:serif="http://www.serif.com/" style="fill-rule:evenodd;clip-rule:evenodd;stroke-linejoin:round;stroke-miterlimit:2;">
    <g transform="matrix(1,0,0,1,0,-2508)">
        <g id="Desktop" transform="matrix(2.47343,0,0,0.815217,0,2508)">
            <rect x="0" y="0" width="1242" height="2208" style="fill:none;"/>
            <clipPath id="_clip1">
                <rect x="0" y="0" width="1242" height="2208"/>
            </clipPath>
            <g clip-path="url(#_clip1)">
                <g transform="matrix(1.21289,0,0,3.68,0,4.54747e-13)">
                    <rect x="0" y="0" width="1024" height="600" style="fill:rgb(32,32,32);"/>
                </g>
                <g transform="matrix(1.21289,0,0,3.68,0,-16.8348)">
                    <g transform="matrix(2.48889,0,0,0.248167,400,413.475)">
                        <rect x="0" y="0" width="225" height="600" style="fill:rgb(51,51,51);"/>
                    </g>
                    <g transform="matrix(1,0,0,1,-1.16667,181.165)">
                        <g transform="matrix(1,0,0,1,-0.5,-1.99364)">
                            <g transform="matrix(1.07372,0,0,0.30303,404.872,154.831)">
                                <path d="M368,435.25C368,430.697 366.957,427 365.672,427L58.328,427C57.043,427 56,430.697 56,435.25L56,451.75C56,456.303 57.043,460 58.328,460L365.672,460C366.957,460 368,456.303 368,451.75L368,435.25Z" style="fill:rgb(245,245,245);"/>
                            </g>
                            <g transform="matrix(0.0625,0,0,0.440933,421.5,93.6709)">
                                <path d="M368,430.96C368,428.774 355.482,427 340.063,427L83.937,427C68.518,427 56,428.774 56,430.96L56,456.04C56,458.226 68.518,460 83.937,460L340.063,460C355.482,460 368,458.226 368,456.04L368,430.96ZM352,430.96L352,456.04C352,456.974 346.651,457.732 340.063,457.732C340.063,457.732 83.937,457.732 83.937,457.732C77.349,457.732 72,456.974 72,456.04C72,456.04 72,430.96 72,430.96C72,430.026 77.349,429.268 83.937,429.268L340.063,429.268C346.651,429.268 352,430.026 352,430.96Z" style="fill:rgb(255,159,28);"/>
                            </g>
                        </g>
                        <g transform="matrix(1,0,0,1,-0.5,32.5127)">
                            <g transform="matrix(0.540064,0,0,0.30303,434.756,154.831)">
                                <path d="M368,435.25C368,430.697 365.926,427 363.371,427L60.629,427C58.074,427 56,430.697 56,435.25L56,451.75C56,456.303 58.074,460 60.629,460L363.371,460C365.926,460 368,456.303 368,451.75L368,435.25Z" style="fill:rgb(245,245,245);"/>
                            </g>
                            <g transform="matrix(0.0625,0,0,0.440933,421.5,93.6709)">
                                <path d="M368,430.96C368,428.774 355.482,427 340.063,427L83.937,427C68.518,427 56,428.774 56,430.96L56,456.04C56,458.226 68.518,460 83.937,460L340.063,460C355.482,460 368,458.226 368,456.04L368,430.96ZM352,430.96L352,456.04C352,456.974 346.651,457.732 340.063,457.732C340.063,457.732 83.937,457.732 83.937,457.732C77.349,457.732 72,456.974 72,456.04C72,456.04 72,430.96 72,430.96C72,430.026 77.349,429.268 83.937,429.268L340.063,429.268C346.651,429.268 352,430.026 352,430.96Z" style="fill:rgb(255,159,28);"/>
                            </g>
                        </g>
                        <g transform="matrix(1,0,0,1,-0.5,67.0191)">
                            <g transform="matrix(0.801282,0,0,0.30303,420.128,154.831)">
                                <path d="M368,435.25C368,430.697 366.602,427 364.88,427L59.12,427C57.398,427 56,430.697 56,435.25L56,451.75C56,456.303 57.398,460 59.12,460L364.88,460C366.602,460 368,456.303 368,451.75L368,435.25Z" style="fill:rgb(245,245,245);"/>
                            </g>
                            <g transform="matrix(0.0625,0,0,0.440933,421.5,93.6709)">
                                <path d="M368,430.96C368,428.774 355.482,427 340.063,427L83.937,427C68.518,427 56,428.774 56,430.96L56,456.04C56,458.226 68.518,460 83.937,460L340.063,460C355.482,460 368,458.226 368,456.04L368,430.96ZM352,430.96L352,456.04C352,456.974 346.651,457.732 340.063,457.732L83.937,457.732C77.349,457.732 72,456.974 72,456.04C72,456.04 72,430.96 72,430.96C72,430.026 77.349,429.268 83.937,429.268C83.937,429.268 340.063,429.268 340.063,429.268C346.651,429.268 352,430.026 352,430.96Z" style="fill:rgb(255,159,28);"/>
                            </g>
                        </g>
                        <g transform="matrix(0.468761,0,0,0.468761,119.76,-153.237)">
                            <g transform="matrix(36,0,0,36,647,883.376)">
                                <path d="M0.655,-0.347C0.655,-0.287 0.646,-0.235 0.627,-0.191C0.608,-0.146 0.582,-0.11 0.548,-0.081C0.514,-0.051 0.473,-0.03 0.426,-0.016C0.379,-0.001 0.327,0.006 0.27,0.006C0.242,0.006 0.211,0.005 0.178,0.003C0.144,0 0.113,-0.004 0.086,-0.011L0.086,-0.683C0.113,-0.69 0.144,-0.694 0.178,-0.697C0.211,-0.699 0.242,-0.7 0.27,-0.7C0.327,-0.7 0.379,-0.693 0.426,-0.679C0.473,-0.664 0.514,-0.643 0.548,-0.614C0.582,-0.585 0.608,-0.548 0.627,-0.504C0.646,-0.459 0.655,-0.407 0.655,-0.347ZM0.278,-0.079C0.37,-0.079 0.439,-0.102 0.484,-0.15C0.529,-0.197 0.552,-0.262 0.552,-0.347C0.552,-0.432 0.529,-0.498 0.484,-0.545C0.439,-0.592 0.37,-0.615 0.278,-0.615C0.251,-0.615 0.23,-0.615 0.215,-0.614C0.2,-0.613 0.189,-0.613 0.183,-0.612L0.183,-0.082C0.189,-0.081 0.2,-0.081 0.215,-0.08C0.23,-0.079 0.251,-0.079 0.278,-0.079Z" style="fill:rgb(245,245,245);fill-rule:nonzero;"/>
                            </g>
                            <g transform="matrix(36,0,0,36,672.668,883.376)">
                                <path d="M0.058,-0.347C0.058,-0.406 0.067,-0.459 0.085,-0.504C0.102,-0.549 0.126,-0.587 0.157,-0.618C0.187,-0.648 0.222,-0.671 0.263,-0.686C0.303,-0.701 0.346,-0.709 0.391,-0.709C0.436,-0.709 0.478,-0.701 0.518,-0.686C0.557,-0.671 0.592,-0.648 0.622,-0.618C0.652,-0.587 0.676,-0.549 0.694,-0.504C0.711,-0.459 0.72,-0.406 0.72,-0.347C0.72,-0.288 0.711,-0.235 0.694,-0.19C0.676,-0.145 0.652,-0.107 0.622,-0.077C0.592,-0.046 0.557,-0.023 0.518,-0.008C0.478,0.007 0.436,0.015 0.391,0.015C0.346,0.015 0.303,0.007 0.263,-0.008C0.222,-0.023 0.187,-0.046 0.157,-0.077C0.126,-0.107 0.102,-0.145 0.085,-0.19C0.067,-0.235 0.058,-0.288 0.058,-0.347ZM0.16,-0.347C0.16,-0.305 0.165,-0.267 0.176,-0.233C0.187,-0.198 0.202,-0.169 0.222,-0.145C0.241,-0.121 0.265,-0.102 0.294,-0.09C0.322,-0.077 0.354,-0.07 0.389,-0.07C0.424,-0.07 0.456,-0.077 0.484,-0.09C0.512,-0.102 0.536,-0.121 0.556,-0.145C0.575,-0.169 0.59,-0.198 0.601,-0.233C0.612,-0.267 0.617,-0.305 0.617,-0.347C0.617,-0.389 0.612,-0.427 0.601,-0.462C0.59,-0.496 0.575,-0.525 0.556,-0.549C0.536,-0.573 0.512,-0.592 0.484,-0.605C0.456,-0.618 0.424,-0.624 0.389,-0.624C0.354,-0.624 0.322,-0.618 0.294,-0.605C0.265,-0.592 0.241,-0.573 0.222,-0.549C0.202,-0.525 0.187,-0.496 0.176,-0.462C0.165,-0.427 0.16,-0.389 0.16,-0.347Z" style="fill:rgb(245,245,245);fill-rule:nonzero;"/>
                            </g>
                            <g transform="matrix(36,0,0,36,700.676,883.376)">
                                <path d="M0.561,-0C0.546,-0.025 0.53,-0.052 0.511,-0.083C0.492,-0.114 0.471,-0.146 0.449,-0.179C0.427,-0.212 0.404,-0.245 0.381,-0.279C0.357,-0.313 0.333,-0.346 0.31,-0.378C0.287,-0.409 0.264,-0.439 0.242,-0.467C0.22,-0.495 0.2,-0.52 0.181,-0.541L0.181,-0L0.086,-0L0.086,-0.693L0.163,-0.693C0.194,-0.66 0.228,-0.621 0.264,-0.577C0.299,-0.532 0.335,-0.487 0.37,-0.44C0.405,-0.393 0.438,-0.346 0.469,-0.301C0.5,-0.256 0.526,-0.215 0.547,-0.18L0.547,-0.693L0.642,-0.693L0.642,-0L0.561,-0Z" style="fill:rgb(245,245,245);fill-rule:nonzero;"/>
                            </g>
                            <g transform="matrix(36,0,0,36,726.884,883.376)">
                                <path d="M0.086,-0L0.086,-0.693L0.509,-0.693L0.509,-0.61L0.183,-0.61L0.183,-0.404L0.473,-0.404L0.473,-0.323L0.183,-0.323L0.183,-0.083L0.534,-0.083L0.534,-0L0.086,-0Z" style="fill:rgb(245,245,245);fill-rule:nonzero;"/>
                            </g>
                        </g>
                    </g>
                </g>
                <g transform="matrix(1.21289,0,0,3.68,0,4.54747e-13)">
                    <g transform="matrix(2.48889,0,0,0.248167,400,230)">
                        <rect x="0" y="0" width="225" height="600" style="fill:rgb(51,51,51);"/>
                    </g>
                    <g transform="matrix(1,0,0,1,-1,-2.30954)">
                        <g transform="matrix(1,0,0,1,-0.5,-1.99364)">
                            <g transform="matrix(0.801282,0,0,0.30303,420.128,154.831)">
                                <path d="M368,435.25C368,430.697 366.602,427 364.88,427L59.12,427C57.398,427 56,430.697 56,435.25L56,451.75C56,456.303 57.398,460 59.12,460L364.88,460C366.602,460 368,456.303 368,451.75L368,435.25Z" style="fill:rgb(245,245,245);"/>
                            </g>
                            <g transform="matrix(0.0625,0,0,0.440933,421.5,93.6709)">
                                <path d="M368,430.96C368,428.774 355.482,427 340.063,427L83.937,427C68.518,427 56,428.774 56,430.96L56,456.04C56,458.226 68.518,460 83.937,460L340.063,460C355.482,460 368,458.226 368,456.04L368,430.96ZM352,430.96L352,456.04C352,456.974 346.651,457.732 340.063,457.732L83.937,457.732C77.349,457.732 72,456.974 72,456.04C72,456.04 72,430.96 72,430.96C72,430.026 77.349,429.268 83.937,429.268C83.937,429.268 340.063,429.268 340.063,429.268C346.651,429.268 352,430.026 352,430.96Z" style="fill:rgb(245,245,245);"/>
                            </g>
                        </g>
                        <g transform="matrix(1,0,0,1,-0.5,32.5127)">
                            <g transform="matrix(1.08333,0,0,0.30303,404.333,154.831)">
                                <path d="M368,435.25C368,430.697 366.966,427 365.692,427L58.308,427C57.034,427 56,430.697 56,435.25L56,451.75C56,456.303 57.034,460 58.308,460L365.692,460C366.966,460 368,456.303 368,451.75L368,435.25Z" style="fill:rgb(245,245,245);"/>
                            </g>
                            <g transform="matrix(0.0625,0,0,0.440933,421.5,93.6709)">
                                <path d="M368,430.96C368,428.774 355.482,427 340.063,427L83.937,427C68.518,427 56,428.774 56,430.96L56,456.04C56,458.226 68.518,460 83.937,460L340.063,460C355.482,460 368,458.226 368,456.04L368,430.96ZM352,430.96L352,456.04C352,456.974 346.651,457.732 340.063,457.732C340.063,457.732 83.937,457.732 83.937,457.732C77.349,457.732 72,456.974 72,456.04C72,456.04 72,430.96 72,430.96C72,430.026 77.349,429.268 83.937,429.268C83.937,429.268 340.063,429.268 340.063,429.268C346.651,429.268 352,430.026 352,430.96Z" style="fill:rgb(245,245,245);"/>
                            </g>
                        </g>
                        <g transform="matrix(1,0,0,1,-0.5,67.0191)">
                            <g transform="matrix(0.910256,0,0,0.30303,414.026,154.831)">
                                <path d="M368,435.25C368,430.697 366.769,427 365.254,427L58.746,427C57.231,427 56,430.697 56,435.25L56,451.75C56,456.303 57.231,460 58.746,460L365.254,460C366.769,460 368,456.303 368,451.75L368,435.25Z" style="fill:rgb(245,245,245);"/>
                            </g>
                            <g transform="matrix(0.0625,0,0,0.440933,421.5,93.6709)">
                                <path d="M368,430.96C368,428.774 355.482,427 340.063,427L83.937,427C68.518,427 56,428.774 56,430.96L56,456.04C56,458.226 68.518,460 83.937,460L340.063,460C355.482,460 368,458.226 368,456.04L368,430.96ZM352,430.96L352,456.04C352,456.974 346.651,457.732 340.063,457.732L83.937,457.732C77.349,457.732 72,456.974 72,456.04C72,456.04 72,430.96 72,430.96C72,430.026 77.349,429.268 83.937,429.268L340.063,429.268C346.651,429.268 352,430.026 352,430.96Z" style="fill:rgb(245,245,245);"/>
                            </g>
                        </g>
                        <g transform="matrix(0.468761,0,0,0.468761,119.593,-153.229)">
                            <g transform="matrix(36,0,0,36,647,883.376)">
                                <path d="M0.27,-0.7C0.367,-0.7 0.442,-0.682 0.495,-0.645C0.547,-0.607 0.573,-0.552 0.573,-0.479C0.573,-0.439 0.566,-0.405 0.552,-0.377C0.537,-0.348 0.517,-0.325 0.49,-0.308C0.462,-0.29 0.43,-0.277 0.391,-0.269C0.352,-0.261 0.309,-0.257 0.26,-0.257L0.183,-0.257L0.183,-0L0.086,-0L0.086,-0.683C0.113,-0.69 0.144,-0.694 0.178,-0.697C0.211,-0.699 0.242,-0.7 0.27,-0.7ZM0.278,-0.615C0.237,-0.615 0.205,-0.614 0.183,-0.612L0.183,-0.34L0.256,-0.34C0.289,-0.34 0.319,-0.342 0.346,-0.347C0.373,-0.351 0.395,-0.358 0.414,-0.369C0.432,-0.379 0.446,-0.393 0.456,-0.411C0.466,-0.429 0.471,-0.452 0.471,-0.48C0.471,-0.507 0.466,-0.529 0.456,-0.546C0.445,-0.563 0.431,-0.577 0.414,-0.588C0.396,-0.598 0.375,-0.605 0.352,-0.609C0.329,-0.613 0.304,-0.615 0.278,-0.615Z" style="fill:rgb(245,245,245);fill-rule:nonzero;"/>
                            </g>
                            <g transform="matrix(36,0,0,36,668.888,883.376)">
                                <path d="M0.086,-0L0.086,-0.693L0.509,-0.693L0.509,-0.61L0.183,-0.61L0.183,-0.404L0.473,-0.404L0.473,-0.323L0.183,-0.323L0.183,-0.083L0.534,-0.083L0.534,-0L0.086,-0Z" style="fill:rgb(245,245,245);fill-rule:nonzero;"/>
                            </g>
                            <g transform="matrix(36,0,0,36,689.444,883.376)">
                                <path d="M0.561,-0C0.546,-0.025 0.53,-0.052 0.511,-0.083C0.492,-0.114 0.471,-0.146 0.449,-0.179C0.427,-0.212 0.404,-0.245 0.381,-0.279C0.357,-0.313 0.333,-0.346 0.31,-0.378C0.287,-0.409 0.264,-0.439 0.242,-0.467C0.22,-0.495 0.2,-0.52 0.181,-0.541L0.181,-0L0.086,-0L0.086,-0.693L0.163,-0.693C0.194,-0.66 0.228,-0.621 0.264,-0.577C0.299,-0.532 0.335,-0.487 0.37,-0.44C0.405,-0.393 0.438,-0.346 0.469,-0.301C0.5,-0.256 0.526,-0.215 0.547,-0.18L0.547,-0.693L0.642,-0.693L0.642,-0L0.561,-0Z" style="fill:rgb(245,245,245);fill-rule:nonzero;"/>
                            </g>
                            <g transform="matrix(36,0,0,36,715.652,883.376)">
                                <path d="M0.655,-0.347C0.655,-0.287 0.646,-0.235 0.627,-0.191C0.608,-0.146 0.582,-0.11 0.548,-0.081C0.514,-0.051 0.473,-0.03 0.426,-0.016C0.379,-0.001 0.327,0.006 0.27,0.006C0.242,0.006 0.211,0.005 0.178,0.003C0.144,0 0.113,-0.004 0.086,-0.011L0.086,-0.683C0.113,-0.69 0.144,-0.694 0.178,-0.697C0.211,-0.699 0.242,-0.7 0.27,-0.7C0.327,-0.7 0.379,-0.693 0.426,-0.679C0.473,-0.664 0.514,-0.643 0.548,-0.614C0.582,-0.585 0.608,-0.548 0.627,-0.504C0.646,-0.459 0.655,-0.407 0.655,-0.347ZM0.278,-0.079C0.37,-0.079 0.439,-0.102 0.484,-0.15C0.529,-0.197 0.552,-0.262 0.552,-0.347C0.552,-0.432 0.529,-0.498 0.484,-0.545C0.439,-0.592 0.37,-0.615 0.278,-0.615C0.251,-0.615 0.23,-0.615 0.215,-0.614C0.2,-0.613 0.189,-0.613 0.183,-0.612L0.183,-0.082C0.189,-0.081 0.2,-0.081 0.215,-0.08C0.23,-0.079 0.251,-0.079 0.278,-0.079Z" style="fill:rgb(245,245,245);fill-rule:nonzero;"/>
                            </g>
                            <g transform="matrix(36,0,0,36,741.32,883.376)">
                                <rect x="0.086" y="-0.693" width="0.097" height="0.693" style="fill:rgb(245,245,245);fill-rule:nonzero;"/>
                            </g>
                            <g transform="matrix(36,0,0,36,751.004,883.376)">
                                <path d="M0.561,-0C0.546,-0.025 0.53,-0.052 0.511,-0.083C0.492,-0.114 0.471,-0.146 0.449,-0.179C0.427,-0.212 0.404,-0.245 0.381,-0.279C0.357,-0.313 0.333,-0.346 0.31,-0.378C0.287,-0.409 0.264,-0.439 0.242,-0.467C0.22,-0.495 0.2,-0.52 0.181,-0.541L0.181,-0L0.086,-0L0.086,-0.693L0.163,-0.693C0.194,-0.66 0.228,-0.621 0.264,-0.577C0.299,-0.532 0.335,-0.487 0.37,-0.44C0.405,-0.393 0.438,-0.346 0.469,-0.301C0.5,-0.256 0.526,-0.215 0.547,-0.18L0.547,-0.693L0.642,-0.693L0.642,-0L0.561,-0Z" style="fill:rgb(245,245,245);fill-rule:nonzero;"/>
                            </g>
                            <g transform="matrix(36,0,0,36,777.212,883.376)">
                                <path d="M0.509,-0.341L0.606,-0.341L0.606,-0.017C0.598,-0.014 0.587,-0.011 0.572,-0.008C0.557,-0.005 0.539,-0.001 0.52,0.002C0.5,0.005 0.478,0.008 0.455,0.011C0.432,0.013 0.408,0.014 0.384,0.014C0.335,0.014 0.291,0.006 0.251,-0.01C0.211,-0.026 0.177,-0.049 0.148,-0.08C0.119,-0.111 0.097,-0.148 0.082,-0.193C0.066,-0.238 0.058,-0.289 0.058,-0.347C0.058,-0.405 0.067,-0.456 0.085,-0.502C0.102,-0.547 0.126,-0.584 0.156,-0.615C0.186,-0.646 0.221,-0.669 0.262,-0.685C0.302,-0.701 0.345,-0.709 0.391,-0.709C0.422,-0.709 0.45,-0.707 0.475,-0.703C0.499,-0.699 0.52,-0.694 0.537,-0.689C0.554,-0.684 0.569,-0.678 0.58,-0.673C0.591,-0.668 0.598,-0.664 0.602,-0.661L0.571,-0.58C0.552,-0.593 0.526,-0.603 0.494,-0.612C0.462,-0.62 0.429,-0.624 0.396,-0.624C0.361,-0.624 0.329,-0.618 0.3,-0.605C0.271,-0.592 0.246,-0.574 0.226,-0.55C0.205,-0.526 0.189,-0.497 0.178,-0.463C0.167,-0.428 0.161,-0.39 0.161,-0.347C0.161,-0.306 0.166,-0.268 0.176,-0.234C0.185,-0.2 0.2,-0.171 0.22,-0.147C0.239,-0.122 0.264,-0.103 0.293,-0.09C0.322,-0.077 0.356,-0.07 0.395,-0.07C0.423,-0.07 0.447,-0.072 0.467,-0.075C0.486,-0.078 0.5,-0.08 0.509,-0.083L0.509,-0.341Z" style="fill:rgb(245,245,245);fill-rule:nonzero;"/>
                            </g>
                        </g>
                    </g>
                </g>
                <g transform="matrix(1.21289,0,0,3.68,-2.75779e-13,4.54747e-13)">
                    <g transform="matrix(2.48889,0,0,0.0833333,400,150)">
                        <rect x="0" y="0" width="225" height="600" style="fill:rgb(51,51,51);"/>
                    </g>
                    <g transform="matrix(0.102699,0,0,0.551166,901.99,-69.4421)">
                        <path d="M368,430.96C368,428.774 358.477,427 346.748,427L77.252,427C65.523,427 56,428.774 56,430.96L56,456.04C56,458.226 65.523,460 77.252,460L346.748,460C358.477,460 368,458.226 368,456.04L368,430.96Z" style="fill:rgb(255,159,28);"/>
                    </g>
                    <g transform="matrix(1,0,0,1,-1.66667,-1.13687e-13)">
                        <g transform="matrix(0.0625,0,0,0.440933,421.5,-20.5537)">
                            <path d="M368,430.96C368,428.774 355.482,427 340.063,427L83.937,427C68.518,427 56,428.774 56,430.96L56,456.04C56,458.226 68.518,460 83.937,460L340.063,460C355.482,460 368,458.226 368,456.04L368,430.96ZM352,430.96L352,456.04C352,456.974 346.651,457.732 340.063,457.732C340.063,457.732 83.937,457.732 83.937,457.732C77.349,457.732 72,456.974 72,456.04C72,456.04 72,430.96 72,430.96C72,430.026 77.349,429.268 83.937,429.268L340.063,429.268C346.651,429.268 352,430.026 352,430.96Z" style="fill:rgb(245,245,245);"/>
                        </g>
                        <g transform="matrix(0.801282,0,0,0.30303,420.462,40.6061)">
                            <path d="M368,435.25C368,430.697 366.602,427 364.88,427L59.12,427C57.398,427 56,430.697 56,435.25L56,451.75C56,456.303 57.398,460 59.12,460L364.88,460C366.602,460 368,456.303 368,451.75L368,435.25Z" style="fill:rgb(245,245,245);"/>
                        </g>
                    </g>
                </g>
                <g transform="matrix(0.768548,0,0,3.68,177.737,4.54747e-13)">
                    <g transform="matrix(1.18109,0,0,0.454545,333.859,-89.0909)">
                        <path d="M368,435.25C368,430.697 365.755,427 362.989,427L61.011,427C58.245,427 56,430.697 56,435.25L56,451.75C56,456.303 58.245,460 61.011,460L362.989,460C365.755,460 368,456.303 368,451.75L368,435.25Z" style="fill:rgb(245,245,245);"/>
                    </g>
                    <g transform="matrix(1.18109,0,0,1.51515,333.859,-621.97)">
                        <path d="M368,430.96C368,428.774 364.408,427 359.983,427L64.017,427C59.592,427 56,428.774 56,430.96L56,456.04C56,458.226 59.592,460 64.017,460L359.983,460C364.408,460 368,458.226 368,456.04L368,430.96Z" style="fill:rgb(245,245,245);"/>
                    </g>
                </g>
                <g transform="matrix(1.21289,0,0,3.68,0,4.54747e-13)">
                    <rect x="0" y="0" width="225" height="600" style="fill:rgb(51,51,51);"/>
                    <g transform="matrix(1,0,0,1,3.55271e-15,-16)">
                        <g>
                            <g transform="matrix(0.958351,0,0,0.958351,16.7758,7.61996)">
                                <g transform="matrix(20,0,0,20,50,210)">
                                    <path d="M0.549,-0.693L0.549,-0.609L0.331,-0.609L0.331,-0L0.234,-0L0.234,-0.609L0.016,-0.609L0.016,-0.693L0.549,-0.693Z" style="fill:rgb(245,245,245);fill-rule:nonzero;"/>
                                </g>
                                <g transform="matrix(20,0,0,20,60.4,210)">
                                    <path d="M0.256,-0.067C0.278,-0.067 0.298,-0.068 0.315,-0.069C0.332,-0.07 0.346,-0.071 0.357,-0.074L0.357,-0.229C0.35,-0.232 0.339,-0.235 0.325,-0.238C0.31,-0.24 0.291,-0.241 0.27,-0.241C0.256,-0.241 0.241,-0.24 0.226,-0.238C0.21,-0.236 0.196,-0.232 0.183,-0.226C0.169,-0.219 0.159,-0.211 0.15,-0.2C0.141,-0.189 0.137,-0.174 0.137,-0.156C0.137,-0.123 0.148,-0.099 0.169,-0.087C0.19,-0.074 0.219,-0.067 0.256,-0.067ZM0.248,-0.533C0.285,-0.533 0.317,-0.528 0.343,-0.519C0.368,-0.509 0.389,-0.495 0.405,-0.478C0.42,-0.46 0.431,-0.439 0.438,-0.415C0.445,-0.39 0.448,-0.363 0.448,-0.334L0.448,-0.009C0.44,-0.008 0.429,-0.006 0.415,-0.004C0.4,-0.001 0.384,0.001 0.366,0.003C0.348,0.005 0.329,0.007 0.308,0.009C0.287,0.01 0.266,0.011 0.245,0.011C0.216,0.011 0.189,0.008 0.164,0.002C0.139,-0.004 0.118,-0.014 0.1,-0.027C0.082,-0.04 0.068,-0.057 0.058,-0.078C0.048,-0.099 0.043,-0.125 0.043,-0.155C0.043,-0.184 0.049,-0.208 0.061,-0.229C0.072,-0.25 0.088,-0.266 0.108,-0.279C0.128,-0.292 0.151,-0.301 0.178,-0.307C0.205,-0.313 0.233,-0.316 0.262,-0.316C0.271,-0.316 0.281,-0.316 0.291,-0.315C0.301,-0.314 0.311,-0.312 0.32,-0.311C0.329,-0.309 0.336,-0.307 0.343,-0.306C0.35,-0.305 0.354,-0.304 0.357,-0.303L0.357,-0.329C0.357,-0.344 0.355,-0.36 0.352,-0.375C0.349,-0.39 0.343,-0.403 0.334,-0.415C0.325,-0.426 0.314,-0.436 0.299,-0.443C0.284,-0.45 0.264,-0.453 0.24,-0.453C0.209,-0.453 0.183,-0.451 0.16,-0.447C0.136,-0.442 0.119,-0.438 0.108,-0.433L0.097,-0.51C0.109,-0.515 0.129,-0.521 0.157,-0.526C0.185,-0.531 0.215,-0.533 0.248,-0.533Z" style="fill:rgb(245,245,245);fill-rule:nonzero;"/>
                                </g>
                                <g transform="matrix(20,0,0,20,70.84,210)">
                                    <path d="M0.201,-0.067C0.239,-0.067 0.267,-0.072 0.286,-0.082C0.304,-0.092 0.313,-0.108 0.313,-0.13C0.313,-0.153 0.304,-0.171 0.286,-0.184C0.268,-0.197 0.238,-0.212 0.197,-0.229C0.177,-0.237 0.158,-0.245 0.14,-0.254C0.121,-0.262 0.105,-0.272 0.092,-0.283C0.079,-0.294 0.068,-0.308 0.06,-0.324C0.052,-0.34 0.048,-0.36 0.048,-0.383C0.048,-0.429 0.065,-0.466 0.099,-0.493C0.133,-0.52 0.179,-0.533 0.238,-0.533C0.253,-0.533 0.267,-0.532 0.282,-0.531C0.297,-0.529 0.31,-0.527 0.323,-0.525C0.336,-0.522 0.347,-0.52 0.357,-0.517C0.366,-0.514 0.374,-0.512 0.379,-0.51L0.362,-0.43C0.352,-0.435 0.336,-0.441 0.315,-0.447C0.294,-0.452 0.268,-0.455 0.238,-0.455C0.212,-0.455 0.189,-0.45 0.17,-0.44C0.151,-0.429 0.141,-0.413 0.141,-0.391C0.141,-0.38 0.143,-0.37 0.148,-0.361C0.152,-0.352 0.159,-0.345 0.168,-0.338C0.177,-0.331 0.188,-0.324 0.201,-0.318C0.214,-0.312 0.23,-0.306 0.249,-0.299C0.274,-0.29 0.296,-0.281 0.315,-0.272C0.334,-0.263 0.351,-0.252 0.365,-0.24C0.378,-0.228 0.389,-0.214 0.396,-0.197C0.403,-0.18 0.407,-0.159 0.407,-0.134C0.407,-0.086 0.389,-0.05 0.354,-0.025C0.318,-0 0.267,0.012 0.201,0.012C0.155,0.012 0.119,0.008 0.093,0.001C0.067,-0.007 0.049,-0.013 0.04,-0.017L0.057,-0.097C0.068,-0.093 0.085,-0.087 0.108,-0.079C0.131,-0.071 0.162,-0.067 0.201,-0.067Z" style="fill:rgb(245,245,245);fill-rule:nonzero;"/>
                                </g>
                                <g transform="matrix(20,0,0,20,79.76,210)">
                                    <path d="M0.268,-0.286C0.288,-0.271 0.309,-0.252 0.332,-0.229C0.354,-0.206 0.376,-0.182 0.398,-0.156C0.419,-0.129 0.44,-0.102 0.459,-0.076C0.478,-0.049 0.495,-0.023 0.508,-0L0.399,-0C0.385,-0.023 0.369,-0.047 0.351,-0.072C0.332,-0.096 0.313,-0.119 0.293,-0.142C0.273,-0.164 0.253,-0.184 0.232,-0.203C0.211,-0.222 0.192,-0.237 0.173,-0.25L0.173,-0L0.08,-0L0.08,-0.76L0.173,-0.776L0.173,-0.302C0.189,-0.318 0.207,-0.336 0.226,-0.355C0.245,-0.374 0.264,-0.394 0.283,-0.414C0.302,-0.434 0.319,-0.453 0.336,-0.472C0.353,-0.49 0.367,-0.506 0.379,-0.52L0.488,-0.52C0.473,-0.503 0.456,-0.485 0.438,-0.465C0.42,-0.445 0.401,-0.425 0.382,-0.405C0.363,-0.384 0.343,-0.364 0.324,-0.344C0.304,-0.323 0.285,-0.304 0.268,-0.286Z" style="fill:rgb(245,245,245);fill-rule:nonzero;"/>
                                </g>
                                <g transform="matrix(20,0,0,20,90.2,210)">
                                    <path d="M0.201,-0.067C0.239,-0.067 0.267,-0.072 0.286,-0.082C0.304,-0.092 0.313,-0.108 0.313,-0.13C0.313,-0.153 0.304,-0.171 0.286,-0.184C0.268,-0.197 0.238,-0.212 0.197,-0.229C0.177,-0.237 0.158,-0.245 0.14,-0.254C0.121,-0.262 0.105,-0.272 0.092,-0.283C0.079,-0.294 0.068,-0.308 0.06,-0.324C0.052,-0.34 0.048,-0.36 0.048,-0.383C0.048,-0.429 0.065,-0.466 0.099,-0.493C0.133,-0.52 0.179,-0.533 0.238,-0.533C0.253,-0.533 0.267,-0.532 0.282,-0.531C0.297,-0.529 0.31,-0.527 0.323,-0.525C0.336,-0.522 0.347,-0.52 0.357,-0.517C0.366,-0.514 0.374,-0.512 0.379,-0.51L0.362,-0.43C0.352,-0.435 0.336,-0.441 0.315,-0.447C0.294,-0.452 0.268,-0.455 0.238,-0.455C0.212,-0.455 0.189,-0.45 0.17,-0.44C0.151,-0.429 0.141,-0.413 0.141,-0.391C0.141,-0.38 0.143,-0.37 0.148,-0.361C0.152,-0.352 0.159,-0.345 0.168,-0.338C0.177,-0.331 0.188,-0.324 0.201,-0.318C0.214,-0.312 0.23,-0.306 0.249,-0.299C0.274,-0.29 0.296,-0.281 0.315,-0.272C0.334,-0.263 0.351,-0.252 0.365,-0.24C0.378,-0.228 0.389,-0.214 0.396,-0.197C0.403,-0.18 0.407,-0.159 0.407,-0.134C0.407,-0.086 0.389,-0.05 0.354,-0.025C0.318,-0 0.267,0.012 0.201,0.012C0.155,0.012 0.119,0.008 0.093,0.001C0.067,-0.007 0.049,-0.013 0.04,-0.017L0.057,-0.097C0.068,-0.093 0.085,-0.087 0.108,-0.079C0.131,-0.071 0.162,-0.067 0.201,-0.067Z" style="fill:rgb(245,245,245);fill-rule:nonzero;"/>
                                </g>
                            </g>
                            <g transform="matrix(0.0625,0,0,0.440933,21.5,6.27453)">
                                <path d="M368,430.96C368,428.774 355.482,427 340.063,427L83.937,427C68.518,427 56,428.774 56,430.96L56,456.04C56,458.226 68.518,460 83.937,460L340.063,460C355.482,460 368,458.226 368,456.04L368,430.96ZM352,430.96L352,456.04C352,456.974 346.651,457.732 340.063,457.732C340.063,457.732 83.937,457.732 83.937,457.732C77.349,457.732 72,456.974 72,456.04L72,430.96C72,430.026 77.349,429.268 83.937,429.268C83.937,429.268 340.063,429.268 340.063,429.268C346.651,429.268 352,430.026 352,430.96Z" style="fill:rgb(245,245,245);"/>
                            </g>
                        </g>
                        <g transform="matrix(1,0,0,1,3.55271e-15,35.1159)">
                            <g transform="matrix(0.958351,0,0,0.958351,16.7758,7.61996)">
                                <g transform="matrix(20,0,0,20,50,210)">
                                    <path d="M0.384,0.015C0.335,0.015 0.291,0.007 0.251,-0.009C0.211,-0.025 0.177,-0.048 0.148,-0.079C0.119,-0.11 0.097,-0.148 0.082,-0.193C0.066,-0.238 0.058,-0.289 0.058,-0.347C0.058,-0.405 0.067,-0.456 0.085,-0.502C0.102,-0.547 0.126,-0.584 0.156,-0.615C0.186,-0.646 0.221,-0.669 0.261,-0.685C0.301,-0.701 0.344,-0.709 0.389,-0.709C0.418,-0.709 0.444,-0.707 0.467,-0.703C0.49,-0.699 0.509,-0.694 0.527,-0.689C0.544,-0.684 0.557,-0.678 0.568,-0.673C0.579,-0.668 0.586,-0.664 0.59,-0.661L0.562,-0.581C0.556,-0.585 0.547,-0.589 0.536,-0.594C0.525,-0.599 0.512,-0.603 0.498,-0.608C0.483,-0.613 0.468,-0.616 0.451,-0.62C0.434,-0.623 0.416,-0.624 0.399,-0.624C0.362,-0.624 0.329,-0.618 0.3,-0.605C0.271,-0.592 0.246,-0.574 0.225,-0.55C0.204,-0.526 0.189,-0.497 0.178,-0.463C0.167,-0.428 0.161,-0.39 0.161,-0.347C0.161,-0.306 0.166,-0.268 0.176,-0.234C0.185,-0.2 0.2,-0.171 0.219,-0.147C0.238,-0.122 0.263,-0.103 0.292,-0.09C0.321,-0.077 0.354,-0.07 0.393,-0.07C0.438,-0.07 0.475,-0.075 0.504,-0.084C0.533,-0.093 0.555,-0.102 0.57,-0.109L0.595,-0.029C0.59,-0.026 0.582,-0.022 0.57,-0.017C0.558,-0.012 0.543,-0.007 0.525,-0.002C0.507,0.003 0.486,0.007 0.462,0.01C0.438,0.013 0.412,0.015 0.384,0.015Z" style="fill:rgb(245,245,245);fill-rule:nonzero;"/>
                                </g>
                                <g transform="matrix(20,0,0,20,62.4,210)">
                                    <path d="M0.256,-0.067C0.278,-0.067 0.298,-0.068 0.315,-0.069C0.332,-0.07 0.346,-0.071 0.357,-0.074L0.357,-0.229C0.35,-0.232 0.339,-0.235 0.325,-0.238C0.31,-0.24 0.291,-0.241 0.27,-0.241C0.256,-0.241 0.241,-0.24 0.226,-0.238C0.21,-0.236 0.196,-0.232 0.183,-0.226C0.169,-0.219 0.159,-0.211 0.15,-0.2C0.141,-0.189 0.137,-0.174 0.137,-0.156C0.137,-0.123 0.148,-0.099 0.169,-0.087C0.19,-0.074 0.219,-0.067 0.256,-0.067ZM0.248,-0.533C0.285,-0.533 0.317,-0.528 0.343,-0.519C0.368,-0.509 0.389,-0.495 0.405,-0.478C0.42,-0.46 0.431,-0.439 0.438,-0.415C0.445,-0.39 0.448,-0.363 0.448,-0.334L0.448,-0.009C0.44,-0.008 0.429,-0.006 0.415,-0.004C0.4,-0.001 0.384,0.001 0.366,0.003C0.348,0.005 0.329,0.007 0.308,0.009C0.287,0.01 0.266,0.011 0.245,0.011C0.216,0.011 0.189,0.008 0.164,0.002C0.139,-0.004 0.118,-0.014 0.1,-0.027C0.082,-0.04 0.068,-0.057 0.058,-0.078C0.048,-0.099 0.043,-0.125 0.043,-0.155C0.043,-0.184 0.049,-0.208 0.061,-0.229C0.072,-0.25 0.088,-0.266 0.108,-0.279C0.128,-0.292 0.151,-0.301 0.178,-0.307C0.205,-0.313 0.233,-0.316 0.262,-0.316C0.271,-0.316 0.281,-0.316 0.291,-0.315C0.301,-0.314 0.311,-0.312 0.32,-0.311C0.329,-0.309 0.336,-0.307 0.343,-0.306C0.35,-0.305 0.354,-0.304 0.357,-0.303L0.357,-0.329C0.357,-0.344 0.355,-0.36 0.352,-0.375C0.349,-0.39 0.343,-0.403 0.334,-0.415C0.325,-0.426 0.314,-0.436 0.299,-0.443C0.284,-0.45 0.264,-0.453 0.24,-0.453C0.209,-0.453 0.183,-0.451 0.16,-0.447C0.136,-0.442 0.119,-0.438 0.108,-0.433L0.097,-0.51C0.109,-0.515 0.129,-0.521 0.157,-0.526C0.185,-0.531 0.215,-0.533 0.248,-0.533Z" style="fill:rgb(245,245,245);fill-rule:nonzero;"/>
                                </g>
                                <g transform="matrix(20,0,0,20,72.84,210)">
                                    <path d="M0.236,0.01C0.179,0.009 0.138,-0.004 0.114,-0.027C0.09,-0.05 0.078,-0.087 0.078,-0.136L0.078,-0.76L0.171,-0.776L0.171,-0.151C0.171,-0.136 0.172,-0.123 0.175,-0.113C0.178,-0.103 0.182,-0.095 0.188,-0.089C0.194,-0.083 0.202,-0.079 0.212,-0.076C0.222,-0.073 0.234,-0.07 0.249,-0.068L0.236,0.01Z" style="fill:rgb(245,245,245);fill-rule:nonzero;"/>
                                </g>
                                <g transform="matrix(20,0,0,20,78.3,210)">
                                    <path d="M0.051,-0.259C0.051,-0.305 0.058,-0.345 0.071,-0.38C0.084,-0.414 0.102,-0.442 0.124,-0.465C0.146,-0.488 0.171,-0.505 0.2,-0.516C0.229,-0.527 0.258,-0.533 0.288,-0.533C0.358,-0.533 0.412,-0.511 0.449,-0.468C0.486,-0.424 0.505,-0.357 0.505,-0.268L0.505,-0.253C0.505,-0.246 0.505,-0.24 0.504,-0.235L0.148,-0.235C0.152,-0.181 0.168,-0.14 0.195,-0.112C0.222,-0.084 0.265,-0.07 0.323,-0.07C0.356,-0.07 0.383,-0.073 0.406,-0.079C0.428,-0.084 0.445,-0.09 0.456,-0.095L0.469,-0.017C0.458,-0.011 0.438,-0.005 0.41,0.002C0.381,0.009 0.349,0.012 0.313,0.012C0.268,0.012 0.229,0.005 0.196,-0.009C0.163,-0.022 0.135,-0.041 0.114,-0.065C0.093,-0.089 0.077,-0.118 0.067,-0.151C0.056,-0.184 0.051,-0.22 0.051,-0.259ZM0.408,-0.31C0.409,-0.352 0.398,-0.387 0.377,-0.414C0.355,-0.441 0.325,-0.454 0.287,-0.454C0.266,-0.454 0.247,-0.45 0.231,-0.442C0.214,-0.433 0.2,-0.422 0.189,-0.409C0.178,-0.396 0.169,-0.38 0.163,-0.363C0.156,-0.346 0.152,-0.328 0.15,-0.31L0.408,-0.31Z" style="fill:rgb(245,245,245);fill-rule:nonzero;"/>
                                </g>
                                <g transform="matrix(20,0,0,20,89.48,210)">
                                    <path d="M0.08,-0.505C0.101,-0.51 0.13,-0.516 0.165,-0.522C0.2,-0.528 0.241,-0.531 0.287,-0.531C0.328,-0.531 0.363,-0.525 0.39,-0.514C0.417,-0.502 0.439,-0.486 0.456,-0.465C0.472,-0.444 0.483,-0.418 0.49,-0.389C0.497,-0.36 0.5,-0.327 0.5,-0.292L0.5,-0L0.407,-0L0.407,-0.272C0.407,-0.304 0.405,-0.331 0.401,-0.354C0.396,-0.377 0.389,-0.395 0.379,-0.409C0.369,-0.423 0.356,-0.433 0.339,-0.44C0.322,-0.446 0.302,-0.449 0.277,-0.449C0.267,-0.449 0.257,-0.449 0.246,-0.448C0.235,-0.447 0.225,-0.447 0.216,-0.446C0.206,-0.444 0.197,-0.443 0.19,-0.442C0.182,-0.441 0.176,-0.44 0.173,-0.439L0.173,-0L0.08,-0L0.08,-0.505Z" style="fill:rgb(245,245,245);fill-rule:nonzero;"/>
                                </g>
                                <g transform="matrix(20,0,0,20,100.96,210)">
                                    <path d="M0.416,-0.41C0.405,-0.419 0.388,-0.428 0.367,-0.437C0.346,-0.446 0.322,-0.45 0.297,-0.45C0.27,-0.45 0.248,-0.445 0.229,-0.436C0.21,-0.426 0.194,-0.413 0.182,-0.396C0.17,-0.379 0.161,-0.358 0.156,-0.335C0.151,-0.312 0.148,-0.287 0.148,-0.26C0.148,-0.199 0.163,-0.153 0.193,-0.12C0.223,-0.087 0.263,-0.07 0.313,-0.07C0.338,-0.07 0.36,-0.071 0.377,-0.074C0.394,-0.076 0.407,-0.078 0.416,-0.081L0.416,-0.41ZM0.416,-0.76L0.509,-0.776L0.509,-0.015C0.488,-0.009 0.46,-0.003 0.427,0.003C0.394,0.009 0.355,0.012 0.312,0.012C0.272,0.012 0.236,0.006 0.204,-0.007C0.172,-0.02 0.145,-0.038 0.122,-0.061C0.099,-0.084 0.082,-0.113 0.07,-0.147C0.057,-0.18 0.051,-0.218 0.051,-0.26C0.051,-0.3 0.056,-0.337 0.067,-0.37C0.077,-0.403 0.092,-0.432 0.112,-0.456C0.132,-0.48 0.157,-0.499 0.186,-0.512C0.215,-0.525 0.248,-0.532 0.285,-0.532C0.315,-0.532 0.341,-0.528 0.365,-0.52C0.388,-0.512 0.405,-0.504 0.416,-0.497L0.416,-0.76Z" style="fill:rgb(245,245,245);fill-rule:nonzero;"/>
                                </g>
                                <g transform="matrix(20,0,0,20,112.74,210)">
                                    <path d="M0.256,-0.067C0.278,-0.067 0.298,-0.068 0.315,-0.069C0.332,-0.07 0.346,-0.071 0.357,-0.074L0.357,-0.229C0.35,-0.232 0.339,-0.235 0.325,-0.238C0.31,-0.24 0.291,-0.241 0.27,-0.241C0.256,-0.241 0.241,-0.24 0.226,-0.238C0.21,-0.236 0.196,-0.232 0.183,-0.226C0.169,-0.219 0.159,-0.211 0.15,-0.2C0.141,-0.189 0.137,-0.174 0.137,-0.156C0.137,-0.123 0.148,-0.099 0.169,-0.087C0.19,-0.074 0.219,-0.067 0.256,-0.067ZM0.248,-0.533C0.285,-0.533 0.317,-0.528 0.343,-0.519C0.368,-0.509 0.389,-0.495 0.405,-0.478C0.42,-0.46 0.431,-0.439 0.438,-0.415C0.445,-0.39 0.448,-0.363 0.448,-0.334L0.448,-0.009C0.44,-0.008 0.429,-0.006 0.415,-0.004C0.4,-0.001 0.384,0.001 0.366,0.003C0.348,0.005 0.329,0.007 0.308,0.009C0.287,0.01 0.266,0.011 0.245,0.011C0.216,0.011 0.189,0.008 0.164,0.002C0.139,-0.004 0.118,-0.014 0.1,-0.027C0.082,-0.04 0.068,-0.057 0.058,-0.078C0.048,-0.099 0.043,-0.125 0.043,-0.155C0.043,-0.184 0.049,-0.208 0.061,-0.229C0.072,-0.25 0.088,-0.266 0.108,-0.279C0.128,-0.292 0.151,-0.301 0.178,-0.307C0.205,-0.313 0.233,-0.316 0.262,-0.316C0.271,-0.316 0.281,-0.316 0.291,-0.315C0.301,-0.314 0.311,-0.312 0.32,-0.311C0.329,-0.309 0.336,-0.307 0.343,-0.306C0.35,-0.305 0.354,-0.304 0.357,-0.303L0.357,-0.329C0.357,-0.344 0.355,-0.36 0.352,-0.375C0.349,-0.39 0.343,-0.403 0.334,-0.415C0.325,-0.426 0.314,-0.436 0.299,-0.443C0.284,-0.45 0.264,-0.453 0.24,-0.453C0.209,-0.453 0.183,-0.451 0.16,-0.447C0.136,-0.442 0.119,-0.438 0.108,-0.433L0.097,-0.51C0.109,-0.515 0.129,-0.521 0.157,-0.526C0.185,-0.531 0.215,-0.533 0.248,-0.533Z" style="fill:rgb(245,245,245);fill-rule:nonzero;"/>
                                </g>
                                <g transform="matrix(20,0,0,20,123.18,210)">
                                    <path d="M0.272,-0.531C0.28,-0.531 0.289,-0.531 0.3,-0.53C0.31,-0.529 0.32,-0.527 0.33,-0.526C0.34,-0.524 0.349,-0.522 0.358,-0.521C0.366,-0.519 0.372,-0.517 0.376,-0.516L0.36,-0.435C0.353,-0.438 0.341,-0.441 0.324,-0.445C0.307,-0.448 0.285,-0.45 0.258,-0.45C0.241,-0.45 0.224,-0.448 0.207,-0.445C0.19,-0.441 0.178,-0.438 0.173,-0.437L0.173,-0L0.08,-0L0.08,-0.498C0.102,-0.506 0.129,-0.514 0.162,-0.521C0.195,-0.528 0.231,-0.531 0.272,-0.531Z" style="fill:rgb(245,245,245);fill-rule:nonzero;"/>
                                </g>
                            </g>
                            <g transform="matrix(0.0625,0,0,0.440933,21.5,6.27453)">
                                <path d="M368,430.96C368,428.774 355.482,427 340.063,427L83.937,427C68.518,427 56,428.774 56,430.96L56,456.04C56,458.226 68.518,460 83.937,460L340.063,460C355.482,460 368,458.226 368,456.04L368,430.96ZM352,430.96L352,456.04C352,456.974 346.651,457.732 340.063,457.732L83.937,457.732C77.349,457.732 72,456.974 72,456.04L72,430.96C72,430.026 77.349,429.268 83.937,429.268C83.937,429.268 340.063,429.268 340.063,429.268C346.651,429.268 352,430.026 352,430.96Z" style="fill:rgb(245,245,245);"/>
                            </g>
                        </g>
                        <g transform="matrix(1,0,0,1,3.55271e-15,70.1857)">
                            <g transform="matrix(0.958351,0,0,0.958351,16.7758,7.61996)">
                                <g transform="matrix(20,0,0,20,50,210)">
                                    <path d="M0.247,-0.069C0.348,-0.069 0.399,-0.104 0.399,-0.173C0.399,-0.194 0.395,-0.213 0.386,-0.228C0.377,-0.243 0.364,-0.256 0.349,-0.267C0.334,-0.278 0.316,-0.287 0.297,-0.295C0.277,-0.303 0.256,-0.311 0.234,-0.319C0.209,-0.328 0.185,-0.338 0.162,-0.349C0.139,-0.36 0.12,-0.373 0.103,-0.388C0.086,-0.403 0.073,-0.42 0.064,-0.441C0.054,-0.462 0.049,-0.487 0.049,-0.516C0.049,-0.577 0.07,-0.624 0.111,-0.658C0.152,-0.692 0.209,-0.709 0.282,-0.709C0.324,-0.709 0.362,-0.705 0.397,-0.696C0.431,-0.687 0.456,-0.677 0.472,-0.666L0.441,-0.587C0.427,-0.596 0.406,-0.604 0.379,-0.613C0.351,-0.621 0.319,-0.625 0.282,-0.625C0.263,-0.625 0.246,-0.623 0.23,-0.619C0.214,-0.615 0.2,-0.609 0.188,-0.601C0.176,-0.593 0.167,-0.583 0.16,-0.571C0.153,-0.558 0.149,-0.544 0.149,-0.527C0.149,-0.508 0.153,-0.493 0.16,-0.48C0.167,-0.467 0.178,-0.456 0.191,-0.447C0.204,-0.437 0.22,-0.428 0.238,-0.42C0.255,-0.412 0.275,-0.404 0.296,-0.396C0.326,-0.384 0.354,-0.372 0.379,-0.36C0.404,-0.348 0.425,-0.334 0.444,-0.317C0.462,-0.3 0.476,-0.28 0.486,-0.258C0.496,-0.235 0.501,-0.207 0.501,-0.174C0.501,-0.113 0.479,-0.067 0.435,-0.034C0.39,-0.001 0.328,0.015 0.247,0.015C0.22,0.015 0.195,0.013 0.172,0.01C0.149,0.006 0.128,0.002 0.11,-0.004C0.092,-0.008 0.077,-0.014 0.064,-0.02C0.05,-0.025 0.04,-0.03 0.033,-0.034L0.062,-0.114C0.077,-0.105 0.101,-0.096 0.132,-0.085C0.163,-0.074 0.202,-0.069 0.247,-0.069Z" style="fill:rgb(245,245,245);fill-rule:nonzero;"/>
                                </g>
                                <g transform="matrix(20,0,0,20,60.64,210)">
                                    <path d="M0.051,-0.259C0.051,-0.305 0.058,-0.345 0.071,-0.38C0.084,-0.414 0.102,-0.442 0.124,-0.465C0.146,-0.488 0.171,-0.505 0.2,-0.516C0.229,-0.527 0.258,-0.533 0.288,-0.533C0.358,-0.533 0.412,-0.511 0.449,-0.468C0.486,-0.424 0.505,-0.357 0.505,-0.268L0.505,-0.253C0.505,-0.246 0.505,-0.24 0.504,-0.235L0.148,-0.235C0.152,-0.181 0.168,-0.14 0.195,-0.112C0.222,-0.084 0.265,-0.07 0.323,-0.07C0.356,-0.07 0.383,-0.073 0.406,-0.079C0.428,-0.084 0.445,-0.09 0.456,-0.095L0.469,-0.017C0.458,-0.011 0.438,-0.005 0.41,0.002C0.381,0.009 0.349,0.012 0.313,0.012C0.268,0.012 0.229,0.005 0.196,-0.009C0.163,-0.022 0.135,-0.041 0.114,-0.065C0.093,-0.089 0.077,-0.118 0.067,-0.151C0.056,-0.184 0.051,-0.22 0.051,-0.259ZM0.408,-0.31C0.409,-0.352 0.398,-0.387 0.377,-0.414C0.355,-0.441 0.325,-0.454 0.287,-0.454C0.266,-0.454 0.247,-0.45 0.231,-0.442C0.214,-0.433 0.2,-0.422 0.189,-0.409C0.178,-0.396 0.169,-0.38 0.163,-0.363C0.156,-0.346 0.152,-0.328 0.15,-0.31L0.408,-0.31Z" style="fill:rgb(245,245,245);fill-rule:nonzero;"/>
                                </g>
                                <g transform="matrix(20,0,0,20,71.82,210)">
                                    <path d="M0.256,-0.067C0.278,-0.067 0.298,-0.068 0.315,-0.069C0.332,-0.07 0.346,-0.071 0.357,-0.074L0.357,-0.229C0.35,-0.232 0.339,-0.235 0.325,-0.238C0.31,-0.24 0.291,-0.241 0.27,-0.241C0.256,-0.241 0.241,-0.24 0.226,-0.238C0.21,-0.236 0.196,-0.232 0.183,-0.226C0.169,-0.219 0.159,-0.211 0.15,-0.2C0.141,-0.189 0.137,-0.174 0.137,-0.156C0.137,-0.123 0.148,-0.099 0.169,-0.087C0.19,-0.074 0.219,-0.067 0.256,-0.067ZM0.248,-0.533C0.285,-0.533 0.317,-0.528 0.343,-0.519C0.368,-0.509 0.389,-0.495 0.405,-0.478C0.42,-0.46 0.431,-0.439 0.438,-0.415C0.445,-0.39 0.448,-0.363 0.448,-0.334L0.448,-0.009C0.44,-0.008 0.429,-0.006 0.415,-0.004C0.4,-0.001 0.384,0.001 0.366,0.003C0.348,0.005 0.329,0.007 0.308,0.009C0.287,0.01 0.266,0.011 0.245,0.011C0.216,0.011 0.189,0.008 0.164,0.002C0.139,-0.004 0.118,-0.014 0.1,-0.027C0.082,-0.04 0.068,-0.057 0.058,-0.078C0.048,-0.099 0.043,-0.125 0.043,-0.155C0.043,-0.184 0.049,-0.208 0.061,-0.229C0.072,-0.25 0.088,-0.266 0.108,-0.279C0.128,-0.292 0.151,-0.301 0.178,-0.307C0.205,-0.313 0.233,-0.316 0.262,-0.316C0.271,-0.316 0.281,-0.316 0.291,-0.315C0.301,-0.314 0.311,-0.312 0.32,-0.311C0.329,-0.309 0.336,-0.307 0.343,-0.306C0.35,-0.305 0.354,-0.304 0.357,-0.303L0.357,-0.329C0.357,-0.344 0.355,-0.36 0.352,-0.375C0.349,-0.39 0.343,-0.403 0.334,-0.415C0.325,-0.426 0.314,-0.436 0.299,-0.443C0.284,-0.45 0.264,-0.453 0.24,-0.453C0.209,-0.453 0.183,-0.451 0.16,-0.447C0.136,-0.442 0.119,-0.438 0.108,-0.433L0.097,-0.51C0.109,-0.515 0.129,-0.521 0.157,-0.526C0.185,-0.531 0.215,-0.533 0.248,-0.533Z" style="fill:rgb(245,245,245);fill-rule:nonzero;"/>
                                </g>
                                <g transform="matrix(20,0,0,20,82.26,210)">
                                    <path d="M0.272,-0.531C0.28,-0.531 0.289,-0.531 0.3,-0.53C0.31,-0.529 0.32,-0.527 0.33,-0.526C0.34,-0.524 0.349,-0.522 0.358,-0.521C0.366,-0.519 0.372,-0.517 0.376,-0.516L0.36,-0.435C0.353,-0.438 0.341,-0.441 0.324,-0.445C0.307,-0.448 0.285,-0.45 0.258,-0.45C0.241,-0.45 0.224,-0.448 0.207,-0.445C0.19,-0.441 0.178,-0.438 0.173,-0.437L0.173,-0L0.08,-0L0.08,-0.498C0.102,-0.506 0.129,-0.514 0.162,-0.521C0.195,-0.528 0.231,-0.531 0.272,-0.531Z" style="fill:rgb(245,245,245);fill-rule:nonzero;"/>
                                </g>
                                <g transform="matrix(20,0,0,20,89.98,210)">
                                    <path d="M0.306,0.012C0.264,0.012 0.227,0.005 0.196,-0.008C0.164,-0.021 0.137,-0.04 0.116,-0.064C0.094,-0.088 0.078,-0.117 0.067,-0.15C0.056,-0.183 0.051,-0.219 0.051,-0.259C0.051,-0.299 0.057,-0.336 0.069,-0.369C0.08,-0.402 0.097,-0.431 0.118,-0.456C0.139,-0.48 0.166,-0.499 0.197,-0.513C0.228,-0.526 0.262,-0.533 0.3,-0.533C0.323,-0.533 0.347,-0.531 0.37,-0.527C0.393,-0.523 0.416,-0.517 0.437,-0.508L0.416,-0.429C0.402,-0.436 0.386,-0.441 0.368,-0.445C0.349,-0.449 0.33,-0.451 0.309,-0.451C0.257,-0.451 0.217,-0.435 0.19,-0.402C0.162,-0.369 0.148,-0.322 0.148,-0.259C0.148,-0.231 0.151,-0.205 0.158,-0.182C0.164,-0.159 0.174,-0.139 0.188,-0.122C0.201,-0.105 0.219,-0.093 0.24,-0.084C0.261,-0.075 0.287,-0.07 0.318,-0.07C0.343,-0.07 0.365,-0.072 0.385,-0.077C0.405,-0.082 0.421,-0.087 0.432,-0.092L0.445,-0.014C0.44,-0.011 0.432,-0.008 0.422,-0.005C0.412,-0.002 0.401,0.001 0.388,0.004C0.375,0.006 0.362,0.008 0.348,0.01C0.333,0.011 0.319,0.012 0.306,0.012Z" style="fill:rgb(245,245,245);fill-rule:nonzero;"/>
                                </g>
                                <g transform="matrix(20,0,0,20,99.28,210)">
                                    <path d="M0.08,-0L0.08,-0.76L0.173,-0.776L0.173,-0.51C0.19,-0.517 0.209,-0.522 0.229,-0.526C0.248,-0.529 0.268,-0.531 0.287,-0.531C0.328,-0.531 0.363,-0.525 0.39,-0.514C0.417,-0.502 0.439,-0.486 0.456,-0.465C0.472,-0.444 0.483,-0.418 0.49,-0.389C0.497,-0.36 0.5,-0.327 0.5,-0.292L0.5,-0L0.407,-0L0.407,-0.272C0.407,-0.304 0.405,-0.331 0.401,-0.354C0.396,-0.377 0.389,-0.395 0.379,-0.409C0.369,-0.423 0.356,-0.433 0.339,-0.44C0.322,-0.446 0.302,-0.449 0.277,-0.449C0.267,-0.449 0.257,-0.448 0.246,-0.447C0.235,-0.446 0.225,-0.444 0.216,-0.443C0.206,-0.441 0.197,-0.439 0.19,-0.437C0.182,-0.435 0.176,-0.433 0.173,-0.432L0.173,-0L0.08,-0Z" style="fill:rgb(245,245,245);fill-rule:nonzero;"/>
                                </g>
                            </g>
                            <g transform="matrix(0.0625,0,0,0.440933,21.5,6.27453)">
                                <path d="M368,430.96C368,428.774 355.482,427 340.063,427L83.937,427C68.518,427 56,428.774 56,430.96L56,456.04C56,458.226 68.518,460 83.937,460L340.063,460C355.482,460 368,458.226 368,456.04L368,430.96ZM352,430.96L352,456.04C352,456.974 346.651,457.732 340.063,457.732L83.937,457.732C77.349,457.732 72,456.974 72,456.04L72,430.96C72,430.026 77.349,429.268 83.937,429.268C83.937,429.268 340.063,429.268 340.063,429.268C346.651,429.268 352,430.026 352,430.96Z" style="fill:rgb(245,245,245);"/>
                            </g>
                        </g>
                        <g transform="matrix(0.280449,0,0,0.212121,9.29487,73.4242)">
                            <path d="M368,435.25C368,430.697 365.204,427 361.76,427L62.24,427C58.796,427 56,430.697 56,435.25L56,451.75C56,456.303 58.796,460 62.24,460L361.76,460C365.204,460 368,456.303 368,451.75L368,435.25Z" style="fill:rgb(245,245,245);"/>
                        </g>
                        <g>
                            <g transform="matrix(0.464744,0,0,0.30303,38.9744,-5.39394)">
                                <path d="M368,435.25C368,430.697 365.59,427 362.621,427L61.379,427C58.41,427 56,430.697 56,435.25L56,451.75C56,456.303 58.41,460 61.379,460L362.621,460C365.59,460 368,456.303 368,451.75L368,435.25Z" style="fill:rgb(255,159,28);"/>
                            </g>
                            <g transform="matrix(0.0625,0,0,0.440933,21.5,-66.5537)">
                                <path d="M368,430.96C368,428.774 355.482,427 340.063,427L83.937,427C68.518,427 56,428.774 56,430.96L56,456.04C56,458.226 68.518,460 83.937,460L340.063,460C355.482,460 368,458.226 368,456.04L368,430.96ZM352,430.96L352,456.04C352,456.974 346.651,457.732 340.063,457.732C340.063,457.732 83.937,457.732 83.937,457.732C77.349,457.732 72,456.974 72,456.04L72,430.96C72,430.026 77.349,429.268 83.937,429.268L340.063,429.268C346.651,429.268 352,430.026 352,430.96Z" style="fill:rgb(255,159,28);"/>
                            </g>
                        </g>
                    </g>
                    <g transform="matrix(0.175719,0,0,0.175719,87.1166,51.3578)">
                        <g transform="matrix(1,0,0,1,-353.5,-150)">
                            <g>
                                <rect x="0" y="0" width="707" height="300" style="fill-opacity:0;"/>
                                <path d="M355.935,37.21L376.365,37.21L376.365,207.46L358.205,207.46L355.935,193.84C352.152,198.985 347.233,202.92 341.18,205.644C335.127,208.368 328.695,209.73 321.885,209.73C312.502,209.73 303.952,207.157 296.234,202.012C288.516,196.867 282.425,189.905 277.961,181.128C273.496,172.351 271.264,162.665 271.264,152.072C271.264,141.781 273.345,132.172 277.507,123.243C281.668,114.314 287.608,107.202 295.326,101.905C303.044,96.608 311.897,93.96 321.885,93.96C328.544,93.96 334.824,95.171 340.726,97.592C346.628,100.013 351.698,103.721 355.935,108.715L355.935,37.21ZM325.517,191.57C330.965,191.57 336.186,190.17 341.18,187.37C346.174,184.571 350.26,180.22 353.438,174.318C355.027,171.367 356.219,168.037 357.013,164.33C357.808,160.622 358.205,156.536 358.205,152.072C358.205,143.749 356.616,136.56 353.438,130.507C350.26,124.454 346.136,119.876 341.067,116.773C335.997,113.671 330.814,112.12 325.517,112.12C315.226,112.12 307.092,115.865 301.115,123.356C295.137,130.847 292.148,140.419 292.148,152.072C292.148,163.271 295.175,172.653 301.228,180.22C307.281,187.787 315.378,191.57 325.517,191.57ZM429.71,209.73C419.419,209.73 411.134,206.703 404.854,200.65C398.573,194.597 395.433,186.879 395.433,177.496C395.433,163.422 402.092,153.358 415.409,147.305C428.726,141.252 444.238,138.074 461.944,137.771C461.944,127.783 460.015,121.011 456.156,117.454C452.297,113.898 446.13,112.12 437.655,112.12C432.964,112.12 428.272,112.839 423.581,114.276C418.89,115.714 413.82,118.325 408.372,122.108L405.421,105.537C409.961,102.056 415.56,99.257 422.219,97.138C428.878,95.019 435.839,93.96 443.103,93.96C452.637,93.96 460.242,95.625 465.917,98.954C471.592,102.283 475.753,107.807 478.402,115.525C481.05,123.243 482.374,133.836 482.374,147.305L482.374,170.005C482.374,176.058 482.639,180.636 483.169,183.738C483.698,186.841 484.871,189.224 486.687,190.889C488.503,192.554 491.303,193.386 495.086,193.386L497.129,193.386L493.951,209.73L492.362,209.73C486.006,209.73 481.012,209.125 477.38,207.914C473.748,206.703 470.986,204.963 469.095,202.693C467.203,200.423 465.425,197.321 463.76,193.386C454.377,204.282 443.027,209.73 429.71,209.73ZM433.569,193.386C439.017,193.386 444.276,192.024 449.346,189.3C454.415,186.576 458.615,182.944 461.944,178.404L461.944,151.845C445.6,152.45 433.91,154.607 426.873,158.314C419.836,162.022 416.317,168.038 416.317,176.361C416.317,182.112 417.868,186.387 420.971,189.186C424.073,191.986 428.272,193.386 433.569,193.386ZM516.651,262.394L542.302,202.466L495.994,96.23L518.694,96.23L553.425,178.858L584.751,96.23L607.451,96.23L539.351,262.394L516.651,262.394ZM651.489,209.73C641.501,209.73 634.199,207.157 629.584,202.012C624.968,196.867 622.66,190.511 622.66,182.944L622.66,37.21L643.09,37.21L643.09,171.14C643.09,177.799 643.506,182.641 644.339,185.668C645.171,188.695 646.798,190.738 649.219,191.797C651.64,192.856 655.575,193.386 661.023,193.386L658.072,209.73L651.489,209.73Z" style="fill:white;fill-rule:nonzero;"/>
                                <g>
                                    <path d="M156.81,105.704L116.92,82.204L77.031,105.454L37.141,129.356L37.141,83.295L77.031,60.265L116.92,37.235L156.81,60.265L196.699,83.295L196.699,129.356L156.81,105.704Z" style="fill:url(#_Linear2);fill-rule:nonzero;"/>
                                    <path d="M77.113,193.343L117.084,216.705L156.892,193.316L196.698,169.276L196.859,215.337L157.049,238.505L117.24,261.674L77.271,238.782L37.302,215.891L37.141,169.831L77.113,193.343Z" style="fill:url(#_Linear3);fill-rule:nonzero;"/>
                                </g>
                            </g>
                        </g>
                    </g>
                </g>
            </g>
        </g>
    </g>
    <defs>
        <linearGradient id="_Linear2" x1="0" y1="0" x2="1" y2="0" gradientUnits="userSpaceOnUse" gradientTransform="matrix(159.558,0,0,159.558,37.141,83.2955)"><stop offset="0" style="stop-color:rgb(255,115,10);stop-opacity:1"/><stop offset="0.98" style="stop-color:rgb(255,191,68);stop-opacity:1"/><stop offset="1" style="stop-color:rgb(255,191,68);stop-opacity:1"/></linearGradient>
        <linearGradient id="_Linear3" x1="0" y1="0" x2="1" y2="0" gradientUnits="userSpaceOnUse" gradientTransform="matrix(-159.557,0.554,-0.554,-159.557,196.859,215.337)"><stop offset="0" style="stop-color:rgb(255,115,10);stop-opacity:1"/><stop offset="0.99" style="stop-color:rgb(255,191,68);stop-opacity:1"/><stop offset="1" style="stop-color:rgb(255,191,68);stop-opacity:1"/></linearGradient>
    </defs>
</svg>
