<?xml version="1.0" encoding="UTF-8" standalone="no"?>
<!DOCTYPE svg PUBLIC "-//W3C//DTD SVG 1.1//EN" "http://www.w3.org/Graphics/SVG/1.1/DTD/svg11.dtd">
<svg width="100%" height="100%" viewBox="0 0 3072 1800" version="1.1" xmlns="http://www.w3.org/2000/svg" xmlns:xlink="http://www.w3.org/1999/xlink" xml:space="preserve" xmlns:serif="http://www.serif.com/" style="fill-rule:evenodd;clip-rule:evenodd;stroke-linejoin:round;stroke-miterlimit:2;">
    <g transform="matrix(1,0,0,1,-8.52651e-14,-4608)">
        <g id="Export" transform="matrix(2.47343,0,0,0.815217,8.52651e-14,4608)">
            <rect x="0" y="0" width="1242" height="2208" style="fill:none;"/>
            <clipPath id="_clip1">
                <rect x="0" y="0" width="1242" height="2208"/>
            </clipPath>
            <g clip-path="url(#_clip1)">
                <g transform="matrix(1.72174,0,0,1.72174,-896.405,-2.13648e-12)">
                    <g transform="matrix(1.21289,0,0,3.68,0,4.54747e-13)">
                        <rect x="0" y="0" width="1024" height="600" style="fill:rgb(32,32,32);"/>
                    </g>
                    <g transform="matrix(1.21289,0,0,3.68,0,4.54747e-13)">
                        <g transform="matrix(2.48889,0,0,0.248167,400,230)">
                            <rect x="0" y="0" width="225" height="600" style="fill:rgb(51,51,51);"/>
                        </g>
                        <g transform="matrix(1,0,0,1,-1,-2.30954)">
                            <g transform="matrix(1,0,0,1,-0.5,-1.99364)">
                                <g transform="matrix(0.801282,0,0,0.30303,420.128,154.831)">
                                    <path d="M368,435.25C368,430.697 366.602,427 364.88,427L59.12,427C57.398,427 56,430.697 56,435.25L56,451.75C56,456.303 57.398,460 59.12,460L364.88,460C366.602,460 368,456.303 368,451.75L368,435.25Z" style="fill:rgb(245,245,245);"/>
                                </g>
                                <g transform="matrix(0.0625,0,0,0.440933,421.5,93.6709)">
                                    <path d="M368,430.96C368,428.774 355.482,427 340.063,427L83.937,427C68.518,427 56,428.774 56,430.96L56,456.04C56,458.226 68.518,460 83.937,460L340.063,460C355.482,460 368,458.226 368,456.04L368,430.96ZM358.707,430.96L358.707,456.04C358.707,457.499 350.353,458.683 340.063,458.683L83.937,458.683C73.647,458.683 65.293,457.499 65.293,456.04L65.293,430.96C65.293,429.501 73.647,428.317 83.937,428.317L340.063,428.317C350.353,428.317 358.707,429.501 358.707,430.96Z" style="fill:rgb(245,245,245);"/>
                                </g>
                            </g>
                            <g transform="matrix(1,0,0,1,-0.5,32.5127)">
                                <g transform="matrix(1.08333,0,0,0.30303,404.333,154.831)">
                                    <path d="M368,435.25C368,430.697 366.966,427 365.692,427L58.308,427C57.034,427 56,430.697 56,435.25L56,451.75C56,456.303 57.034,460 58.308,460L365.692,460C366.966,460 368,456.303 368,451.75L368,435.25Z" style="fill:rgb(245,245,245);"/>
                                </g>
                                <g transform="matrix(0.0625,0,0,0.440933,421.5,93.6709)">
                                    <path d="M368,430.96C368,428.774 355.482,427 340.063,427L83.937,427C68.518,427 56,428.774 56,430.96L56,456.04C56,458.226 68.518,460 83.937,460L340.063,460C355.482,460 368,458.226 368,456.04L368,430.96ZM358.707,430.96L358.707,456.04C358.707,457.499 350.353,458.683 340.063,458.683C340.063,458.683 83.937,458.683 83.937,458.683C73.647,458.683 65.293,457.499 65.293,456.04L65.293,430.96C65.293,429.501 73.647,428.317 83.937,428.317L340.063,428.317C350.353,428.317 358.707,429.501 358.707,430.96Z" style="fill:rgb(245,245,245);"/>
                                </g>
                            </g>
                            <g transform="matrix(0.0625,0,0,0.440933,421,160.69)">
                                <path d="M368,430.96C368,428.774 355.482,427 340.063,427L83.937,427C68.518,427 56,428.774 56,430.96L56,456.04C56,458.226 68.518,460 83.937,460L340.063,460C355.482,460 368,458.226 368,456.04L368,430.96ZM358.707,430.96L358.707,456.04C358.707,457.499 350.353,458.683 340.063,458.683L83.937,458.683C73.647,458.683 65.293,457.499 65.293,456.04L65.293,430.96C65.293,429.501 73.647,428.317 83.937,428.317L340.063,428.317C350.353,428.317 358.707,429.501 358.707,430.96Z" style="fill:rgb(245,245,245);"/>
                            </g>
                            <g transform="matrix(0.468761,0,0,0.468761,119.593,-153.229)">
                                <g transform="matrix(36,0,0,36,647,883.376)">
                                    <path d="M0.27,-0.7C0.367,-0.7 0.442,-0.682 0.495,-0.645C0.547,-0.607 0.573,-0.552 0.573,-0.479C0.573,-0.439 0.566,-0.405 0.552,-0.377C0.537,-0.348 0.517,-0.325 0.49,-0.308C0.462,-0.29 0.43,-0.277 0.391,-0.269C0.352,-0.261 0.309,-0.257 0.26,-0.257L0.183,-0.257L0.183,-0L0.086,-0L0.086,-0.683C0.113,-0.69 0.144,-0.694 0.178,-0.697C0.211,-0.699 0.242,-0.7 0.27,-0.7ZM0.278,-0.615C0.237,-0.615 0.205,-0.614 0.183,-0.612L0.183,-0.34L0.256,-0.34C0.289,-0.34 0.319,-0.342 0.346,-0.347C0.373,-0.351 0.395,-0.358 0.414,-0.369C0.432,-0.379 0.446,-0.393 0.456,-0.411C0.466,-0.429 0.471,-0.452 0.471,-0.48C0.471,-0.507 0.466,-0.529 0.456,-0.546C0.445,-0.563 0.431,-0.577 0.414,-0.588C0.396,-0.598 0.375,-0.605 0.352,-0.609C0.329,-0.613 0.304,-0.615 0.278,-0.615Z" style="fill:rgb(245,245,245);fill-rule:nonzero;"/>
                                </g>
                                <g transform="matrix(36,0,0,36,668.888,883.376)">
                                    <path d="M0.086,-0L0.086,-0.693L0.509,-0.693L0.509,-0.61L0.183,-0.61L0.183,-0.404L0.473,-0.404L0.473,-0.323L0.183,-0.323L0.183,-0.083L0.534,-0.083L0.534,-0L0.086,-0Z" style="fill:rgb(245,245,245);fill-rule:nonzero;"/>
                                </g>
                                <g transform="matrix(36,0,0,36,689.444,883.376)">
                                    <path d="M0.561,-0C0.546,-0.025 0.53,-0.052 0.511,-0.083C0.492,-0.114 0.471,-0.146 0.449,-0.179C0.427,-0.212 0.404,-0.245 0.381,-0.279C0.357,-0.313 0.333,-0.346 0.31,-0.378C0.287,-0.409 0.264,-0.439 0.242,-0.467C0.22,-0.495 0.2,-0.52 0.181,-0.541L0.181,-0L0.086,-0L0.086,-0.693L0.163,-0.693C0.194,-0.66 0.228,-0.621 0.264,-0.577C0.299,-0.532 0.335,-0.487 0.37,-0.44C0.405,-0.393 0.438,-0.346 0.469,-0.301C0.5,-0.256 0.526,-0.215 0.547,-0.18L0.547,-0.693L0.642,-0.693L0.642,-0L0.561,-0Z" style="fill:rgb(245,245,245);fill-rule:nonzero;"/>
                                </g>
                                <g transform="matrix(36,0,0,36,715.652,883.376)">
                                    <path d="M0.655,-0.347C0.655,-0.287 0.646,-0.235 0.627,-0.191C0.608,-0.146 0.582,-0.11 0.548,-0.081C0.514,-0.051 0.473,-0.03 0.426,-0.016C0.379,-0.001 0.327,0.006 0.27,0.006C0.242,0.006 0.211,0.005 0.178,0.003C0.144,0 0.113,-0.004 0.086,-0.011L0.086,-0.683C0.113,-0.69 0.144,-0.694 0.178,-0.697C0.211,-0.699 0.242,-0.7 0.27,-0.7C0.327,-0.7 0.379,-0.693 0.426,-0.679C0.473,-0.664 0.514,-0.643 0.548,-0.614C0.582,-0.585 0.608,-0.548 0.627,-0.504C0.646,-0.459 0.655,-0.407 0.655,-0.347ZM0.278,-0.079C0.37,-0.079 0.439,-0.102 0.484,-0.15C0.529,-0.197 0.552,-0.262 0.552,-0.347C0.552,-0.432 0.529,-0.498 0.484,-0.545C0.439,-0.592 0.37,-0.615 0.278,-0.615C0.251,-0.615 0.23,-0.615 0.215,-0.614C0.2,-0.613 0.189,-0.613 0.183,-0.612L0.183,-0.082C0.189,-0.081 0.2,-0.081 0.215,-0.08C0.23,-0.079 0.251,-0.079 0.278,-0.079Z" style="fill:rgb(245,245,245);fill-rule:nonzero;"/>
                                </g>
                                <g transform="matrix(36,0,0,36,741.32,883.376)">
                                    <rect x="0.086" y="-0.693" width="0.097" height="0.693" style="fill:rgb(245,245,245);fill-rule:nonzero;"/>
                                </g>
                                <g transform="matrix(36,0,0,36,751.004,883.376)">
                                    <path d="M0.561,-0C0.546,-0.025 0.53,-0.052 0.511,-0.083C0.492,-0.114 0.471,-0.146 0.449,-0.179C0.427,-0.212 0.404,-0.245 0.381,-0.279C0.357,-0.313 0.333,-0.346 0.31,-0.378C0.287,-0.409 0.264,-0.439 0.242,-0.467C0.22,-0.495 0.2,-0.52 0.181,-0.541L0.181,-0L0.086,-0L0.086,-0.693L0.163,-0.693C0.194,-0.66 0.228,-0.621 0.264,-0.577C0.299,-0.532 0.335,-0.487 0.37,-0.44C0.405,-0.393 0.438,-0.346 0.469,-0.301C0.5,-0.256 0.526,-0.215 0.547,-0.18L0.547,-0.693L0.642,-0.693L0.642,-0L0.561,-0Z" style="fill:rgb(245,245,245);fill-rule:nonzero;"/>
                                </g>
                                <g transform="matrix(36,0,0,36,777.212,883.376)">
                                    <path d="M0.509,-0.341L0.606,-0.341L0.606,-0.017C0.598,-0.014 0.587,-0.011 0.572,-0.008C0.557,-0.005 0.539,-0.001 0.52,0.002C0.5,0.005 0.478,0.008 0.455,0.011C0.432,0.013 0.408,0.014 0.384,0.014C0.335,0.014 0.291,0.006 0.251,-0.01C0.211,-0.026 0.177,-0.049 0.148,-0.08C0.119,-0.111 0.097,-0.148 0.082,-0.193C0.066,-0.238 0.058,-0.289 0.058,-0.347C0.058,-0.405 0.067,-0.456 0.085,-0.502C0.102,-0.547 0.126,-0.584 0.156,-0.615C0.186,-0.646 0.221,-0.669 0.262,-0.685C0.302,-0.701 0.345,-0.709 0.391,-0.709C0.422,-0.709 0.45,-0.707 0.475,-0.703C0.499,-0.699 0.52,-0.694 0.537,-0.689C0.554,-0.684 0.569,-0.678 0.58,-0.673C0.591,-0.668 0.598,-0.664 0.602,-0.661L0.571,-0.58C0.552,-0.593 0.526,-0.603 0.494,-0.612C0.462,-0.62 0.429,-0.624 0.396,-0.624C0.361,-0.624 0.329,-0.618 0.3,-0.605C0.271,-0.592 0.246,-0.574 0.226,-0.55C0.205,-0.526 0.189,-0.497 0.178,-0.463C0.167,-0.428 0.161,-0.39 0.161,-0.347C0.161,-0.306 0.166,-0.268 0.176,-0.234C0.185,-0.2 0.2,-0.171 0.22,-0.147C0.239,-0.122 0.264,-0.103 0.293,-0.09C0.322,-0.077 0.356,-0.07 0.395,-0.07C0.423,-0.07 0.447,-0.072 0.467,-0.075C0.486,-0.078 0.5,-0.08 0.509,-0.083L0.509,-0.341Z" style="fill:rgb(245,245,245);fill-rule:nonzero;"/>
                                </g>
                            </g>
                        </g>
                    </g>
                    <g transform="matrix(1.21289,0,0,3.68,-2.75779e-13,4.54747e-13)">
                        <g transform="matrix(2.48889,0,0,0.0833333,400,150)">
                            <rect x="0" y="0" width="225" height="600" style="fill:rgb(51,51,51);"/>
                        </g>
                        <g transform="matrix(1,0,0,1,-1.66667,-1.13687e-13)">
                            <g transform="matrix(0.0625,0,0,0.440933,421.5,-20.5537)">
                                <path d="M368,430.96C368,428.774 355.482,427 340.063,427L83.937,427C68.518,427 56,428.774 56,430.96L56,456.04C56,458.226 68.518,460 83.937,460L340.063,460C355.482,460 368,458.226 368,456.04L368,430.96ZM358.707,430.96L358.707,456.04C358.707,457.499 350.353,458.683 340.063,458.683L83.937,458.683C73.647,458.683 65.293,457.499 65.293,456.04C65.293,456.04 65.293,430.96 65.293,430.96C65.293,429.501 73.647,428.317 83.937,428.317C83.937,428.317 340.063,428.317 340.063,428.317C350.353,428.317 358.707,429.501 358.707,430.96Z" style="fill:rgb(245,245,245);"/>
                            </g>
                            <g transform="matrix(0.801282,0,0,0.30303,420.462,40.6061)">
                                <path d="M368,435.25C368,430.697 366.602,427 364.88,427L59.12,427C57.398,427 56,430.697 56,435.25L56,451.75C56,456.303 57.398,460 59.12,460L364.88,460C366.602,460 368,456.303 368,451.75L368,435.25Z" style="fill:rgb(245,245,245);"/>
                            </g>
                        </g>
                    </g>
                    <g transform="matrix(0.768548,0,0,3.68,177.737,4.54747e-13)">
                        <g transform="matrix(1.18109,0,0,0.454545,333.859,-89.0909)">
                            <path d="M368,435.25C368,430.697 365.755,427 362.989,427L61.011,427C58.245,427 56,430.697 56,435.25L56,451.75C56,456.303 58.245,460 61.011,460L362.989,460C365.755,460 368,456.303 368,451.75L368,435.25Z" style="fill:rgb(245,245,245);"/>
                        </g>
                        <g transform="matrix(1.30115,0,0,0.271739,-202.857,20.3333)">
                            <g transform="matrix(0.275657,0,0,0.836364,358.575,-3770.72)">
                                <circle cx="2833" cy="4683" r="11" style="fill:rgb(245,245,245);"/>
                            </g>
                            <g transform="matrix(0.275657,0,0,0.836364,358.575,-3807.52)">
                                <circle cx="2833" cy="4683" r="11" style="fill:rgb(245,245,245);"/>
                            </g>
                            <g transform="matrix(0.275657,0,0,0.836364,358.575,-3844.32)">
                                <circle cx="2833" cy="4683" r="11" style="fill:rgb(245,245,245);"/>
                            </g>
                        </g>
                        <g transform="matrix(1,0,0,1,8.41685,-9)">
                            <g transform="matrix(0.661781,0,0,0.939394,1040.23,-332.121)">
                                <path d="M368,430.96C368,428.774 364.025,427 359.129,427L64.871,427C59.975,427 56,428.774 56,430.96L56,456.04C56,458.226 59.975,460 64.871,460L359.129,460C364.025,460 368,458.226 368,456.04L368,430.96Z" style="fill:rgb(51,51,51);"/>
                            </g>
                            <g transform="matrix(0.443221,0,0,0.280847,43.9628,-1268.66)">
                                <g transform="matrix(60,0,0,60,2448.78,4838.96)">
                                    <path d="M0.086,-0L0.086,-0.693L0.509,-0.693L0.509,-0.61L0.183,-0.61L0.183,-0.404L0.473,-0.404L0.473,-0.323L0.183,-0.323L0.183,-0.083L0.534,-0.083L0.534,-0L0.086,-0Z" style="fill:rgb(245,245,245);fill-rule:nonzero;"/>
                                </g>
                                <g transform="matrix(60,0,0,60,2483.04,4838.96)">
                                    <path d="M0.502,-0C0.492,-0.02 0.48,-0.042 0.466,-0.067C0.452,-0.091 0.437,-0.116 0.42,-0.143C0.403,-0.169 0.386,-0.195 0.368,-0.222C0.35,-0.248 0.333,-0.273 0.316,-0.296C0.299,-0.273 0.282,-0.248 0.264,-0.222C0.246,-0.195 0.229,-0.169 0.213,-0.143C0.196,-0.116 0.181,-0.091 0.167,-0.067C0.152,-0.042 0.14,-0.02 0.13,-0L0.023,-0C0.053,-0.059 0.088,-0.118 0.128,-0.179C0.167,-0.24 0.209,-0.302 0.254,-0.366L0.032,-0.693L0.144,-0.693L0.315,-0.435L0.484,-0.693L0.595,-0.693L0.377,-0.37C0.422,-0.305 0.465,-0.242 0.505,-0.181C0.545,-0.12 0.58,-0.059 0.611,-0L0.502,-0Z" style="fill:rgb(245,245,245);fill-rule:nonzero;"/>
                                </g>
                                <g transform="matrix(60,0,0,60,2520.9,4838.96)">
                                    <path d="M0.27,-0.7C0.367,-0.7 0.442,-0.682 0.495,-0.645C0.547,-0.607 0.573,-0.552 0.573,-0.479C0.573,-0.439 0.566,-0.405 0.552,-0.377C0.537,-0.348 0.517,-0.325 0.49,-0.308C0.462,-0.29 0.43,-0.277 0.391,-0.269C0.352,-0.261 0.309,-0.257 0.26,-0.257L0.183,-0.257L0.183,-0L0.086,-0L0.086,-0.683C0.113,-0.69 0.144,-0.694 0.178,-0.697C0.211,-0.699 0.242,-0.7 0.27,-0.7ZM0.278,-0.615C0.237,-0.615 0.205,-0.614 0.183,-0.612L0.183,-0.34L0.256,-0.34C0.289,-0.34 0.319,-0.342 0.346,-0.347C0.373,-0.351 0.395,-0.358 0.414,-0.369C0.432,-0.379 0.446,-0.393 0.456,-0.411C0.466,-0.429 0.471,-0.452 0.471,-0.48C0.471,-0.507 0.466,-0.529 0.456,-0.546C0.445,-0.563 0.431,-0.577 0.414,-0.588C0.396,-0.598 0.375,-0.605 0.352,-0.609C0.329,-0.613 0.304,-0.615 0.278,-0.615Z" style="fill:rgb(245,245,245);fill-rule:nonzero;"/>
                                </g>
                                <g transform="matrix(60,0,0,60,2557.38,4838.96)">
                                    <path d="M0.058,-0.347C0.058,-0.406 0.067,-0.459 0.085,-0.504C0.102,-0.549 0.126,-0.587 0.157,-0.618C0.187,-0.648 0.222,-0.671 0.263,-0.686C0.303,-0.701 0.346,-0.709 0.391,-0.709C0.436,-0.709 0.478,-0.701 0.518,-0.686C0.557,-0.671 0.592,-0.648 0.622,-0.618C0.652,-0.587 0.676,-0.549 0.694,-0.504C0.711,-0.459 0.72,-0.406 0.72,-0.347C0.72,-0.288 0.711,-0.235 0.694,-0.19C0.676,-0.145 0.652,-0.107 0.622,-0.077C0.592,-0.046 0.557,-0.023 0.518,-0.008C0.478,0.007 0.436,0.015 0.391,0.015C0.346,0.015 0.303,0.007 0.263,-0.008C0.222,-0.023 0.187,-0.046 0.157,-0.077C0.126,-0.107 0.102,-0.145 0.085,-0.19C0.067,-0.235 0.058,-0.288 0.058,-0.347ZM0.16,-0.347C0.16,-0.305 0.165,-0.267 0.176,-0.233C0.187,-0.198 0.202,-0.169 0.222,-0.145C0.241,-0.121 0.265,-0.102 0.294,-0.09C0.322,-0.077 0.354,-0.07 0.389,-0.07C0.424,-0.07 0.456,-0.077 0.484,-0.09C0.512,-0.102 0.536,-0.121 0.556,-0.145C0.575,-0.169 0.59,-0.198 0.601,-0.233C0.612,-0.267 0.617,-0.305 0.617,-0.347C0.617,-0.389 0.612,-0.427 0.601,-0.462C0.59,-0.496 0.575,-0.525 0.556,-0.549C0.536,-0.573 0.512,-0.592 0.484,-0.605C0.456,-0.618 0.424,-0.624 0.389,-0.624C0.354,-0.624 0.322,-0.618 0.294,-0.605C0.265,-0.592 0.241,-0.573 0.222,-0.549C0.202,-0.525 0.187,-0.496 0.176,-0.462C0.165,-0.427 0.16,-0.389 0.16,-0.347Z" style="fill:rgb(245,245,245);fill-rule:nonzero;"/>
                                </g>
                                <g transform="matrix(60,0,0,60,2604.06,4838.96)">
                                    <path d="M0.425,-0.29C0.436,-0.277 0.449,-0.259 0.466,-0.238C0.482,-0.216 0.499,-0.192 0.516,-0.166C0.533,-0.139 0.551,-0.112 0.568,-0.083C0.584,-0.054 0.599,-0.027 0.611,-0L0.505,-0C0.492,-0.025 0.477,-0.051 0.462,-0.077C0.446,-0.103 0.43,-0.128 0.414,-0.152C0.398,-0.175 0.382,-0.197 0.367,-0.218C0.351,-0.239 0.337,-0.257 0.324,-0.272C0.315,-0.271 0.307,-0.271 0.298,-0.271L0.183,-0.271L0.183,-0L0.086,-0L0.086,-0.683C0.113,-0.69 0.144,-0.694 0.178,-0.697C0.211,-0.699 0.242,-0.7 0.27,-0.7C0.367,-0.7 0.442,-0.682 0.493,-0.645C0.544,-0.608 0.569,-0.554 0.569,-0.481C0.569,-0.435 0.557,-0.396 0.533,-0.363C0.508,-0.33 0.472,-0.306 0.425,-0.29ZM0.278,-0.615C0.237,-0.615 0.205,-0.614 0.183,-0.612L0.183,-0.351L0.252,-0.351C0.285,-0.351 0.315,-0.353 0.342,-0.356C0.369,-0.359 0.391,-0.366 0.41,-0.375C0.428,-0.384 0.442,-0.398 0.452,-0.415C0.462,-0.432 0.467,-0.454 0.467,-0.482C0.467,-0.508 0.462,-0.53 0.452,-0.547C0.442,-0.564 0.429,-0.578 0.412,-0.588C0.395,-0.598 0.375,-0.605 0.352,-0.609C0.329,-0.613 0.304,-0.615 0.278,-0.615Z" style="fill:rgb(245,245,245);fill-rule:nonzero;"/>
                                </g>
                                <g transform="matrix(60,0,0,60,2641.8,4838.96)">
                                    <path d="M0.549,-0.693L0.549,-0.609L0.331,-0.609L0.331,-0L0.234,-0L0.234,-0.609L0.016,-0.609L0.016,-0.693L0.549,-0.693Z" style="fill:rgb(245,245,245);fill-rule:nonzero;"/>
                                </g>
                            </g>
                        </g>
                        <g transform="matrix(1.18109,0,0,1.51515,333.859,-621.97)">
                            <path d="M368,430.96C368,428.774 364.408,427 359.983,427L64.017,427C59.592,427 56,428.774 56,430.96L56,456.04C56,458.226 59.592,460 64.017,460L359.983,460C364.408,460 368,458.226 368,456.04L368,430.96Z" style="fill:rgb(245,245,245);"/>
                        </g>
                    </g>
                </g>
            </g>
        </g>
    </g>
</svg>
