<?xml version="1.0" encoding="UTF-8" standalone="no"?>
<!DOCTYPE svg PUBLIC "-//W3C//DTD SVG 1.1//EN" "http://www.w3.org/Graphics/SVG/1.1/DTD/svg11.dtd">
<svg width="100%" height="100%" viewBox="0 0 1024 600" version="1.1" xmlns="http://www.w3.org/2000/svg" xmlns:xlink="http://www.w3.org/1999/xlink" xml:space="preserve" xmlns:serif="http://www.serif.com/" style="fill-rule:evenodd;clip-rule:evenodd;stroke-linecap:round;stroke-linejoin:round;stroke-miterlimit:1.5;">
    <g transform="matrix(0.0415362,0,0,0.0415362,729.631,90.2853)">
        <g transform="matrix(5.95125,0,0,18.0565,-3313.52,-368)">
            <rect x="0" y="0" width="1024" height="600" style="fill:rgb(32,32,32);"/>
        </g>
        <g transform="matrix(11.6592,0,0,18.4,-7535.58,-386.4)">
            <g transform="matrix(1.18109,0,0,0.454545,333.859,-95.0909)">
                <path d="M368,435.25C368,430.697 365.755,427 362.989,427L61.011,427C58.245,427 56,430.697 56,435.25L56,451.75C56,456.303 58.245,460 61.011,460L362.989,460C365.755,460 368,456.303 368,451.75L368,435.25Z" style="fill:rgb(245,245,245);"/>
            </g>
            <g transform="matrix(1.18109,0,0,1.51515,333.859,-621.97)">
                <path d="M368,430.96C368,428.774 364.408,427 359.983,427L64.017,427C59.592,427 56,428.774 56,430.96L56,456.04C56,458.226 59.592,460 64.017,460L359.983,460C364.408,460 368,458.226 368,456.04L368,430.96Z" style="fill:rgb(245,245,245);"/>
            </g>
        </g>
        <g transform="matrix(4.90667,0,0,4.90667,-3313.52,-368)">
            <g transform="matrix(1,0,0,1,-1.115,677.1)">
                <g transform="matrix(1,0,0,1,-221.885,144.7)">
                    <g transform="matrix(1,0,0,1,-3084,0)">
                        <rect x="3397" y="671" width="99.385" height="99.385" style="fill:none;stroke:rgb(245,245,245);stroke-opacity:0;stroke-width:29.44px;"/>
                    </g>
                    <g transform="matrix(1,0,0,1,-3037.68,-146.282)">
                        <text x="3359px" y="893px" style="font-family:'Ubuntu', sans-serif;font-size:75px;fill:rgb(245,245,245);">26</text>
                    </g>
                </g>
                <g transform="matrix(1,0,0,1,-71.885,144.7)">
                    <g transform="matrix(1,0,0,1,-3084,0)">
                        <rect x="3397" y="671" width="99.385" height="99.385" style="fill:none;stroke:rgb(245,245,245);stroke-opacity:0;stroke-width:29.44px;"/>
                    </g>
                    <g transform="matrix(1,0,0,1,-3037.23,-145.72)">
                        <text x="3359px" y="893px" style="font-family:'Ubuntu', sans-serif;font-size:75px;fill:rgb(245,245,245);">27</text>
                    </g>
                </g>
                <g transform="matrix(1,0,0,1,90.415,144.7)">
                    <g transform="matrix(1,0,0,1,-3084,0)">
                        <rect x="3397" y="671" width="99.385" height="99.385" style="fill:none;stroke:rgb(245,245,245);stroke-opacity:0;stroke-width:29.44px;"/>
                    </g>
                    <g transform="matrix(1,0,0,1,-3037.53,-146.282)">
                        <text x="3359px" y="893px" style="font-family:'Ubuntu', sans-serif;font-size:75px;fill:rgb(245,245,245);">28</text>
                    </g>
                </g>
                <g transform="matrix(1,0,0,1,252.715,144.7)">
                    <g transform="matrix(1,0,0,1,-3084,0)">
                        <rect x="3397" y="671" width="99.385" height="99.385" style="fill:none;stroke:rgb(245,245,245);stroke-opacity:0;stroke-width:29.44px;"/>
                    </g>
                    <g transform="matrix(1,0,0,1,-3035.64,-145.307)">
                        <text x="3359px" y="893px" style="font-family:'Ubuntu', sans-serif;font-size:75px;fill:rgb(245,245,245);">29</text>
                    </g>
                </g>
                <g transform="matrix(1,0,0,1,415.015,144.7)">
                    <g transform="matrix(1,0,0,1,-3084,0)">
                        <rect x="3397" y="671" width="99.385" height="99.385" style="fill:none;stroke:rgb(245,245,245);stroke-opacity:0;stroke-width:29.44px;"/>
                    </g>
                    <g transform="matrix(1,0,0,1,-3038.8,-145.307)">
                        <text x="3359px" y="893px" style="font-family:'Ubuntu', sans-serif;font-size:75px;fill:rgb(245,245,245);">30</text>
                    </g>
                </g>
            </g>
            <g transform="matrix(1,0,0,1,4.54747e-13,451.4)">
                <g transform="matrix(1,0,0,1,-221.885,144.7)">
                    <g transform="matrix(1,0,0,1,-3084,0)">
                        <rect x="3397" y="671" width="99.385" height="99.385" style="fill:none;stroke:rgb(245,245,245);stroke-opacity:0;stroke-width:29.44px;"/>
                    </g>
                    <g transform="matrix(1,0,0,1,-3038.79,-144.345)">
                        <text x="3359px" y="893px" style="font-family:'Ubuntu', sans-serif;font-size:75px;fill:rgb(245,245,245);">19</text>
                    </g>
                </g>
                <g transform="matrix(1,0,0,1,-71.885,144.7)">
                    <g transform="matrix(1,0,0,1,-3084,0)">
                        <rect x="3397" y="671" width="99.385" height="99.385" style="fill:none;stroke:rgb(245,245,245);stroke-opacity:0;stroke-width:29.44px;"/>
                    </g>
                    <g transform="matrix(1,0,0,1,-3036.18,-145.32)">
                        <text x="3359px" y="893px" style="font-family:'Ubuntu', sans-serif;font-size:75px;fill:rgb(245,245,245);">20</text>
                    </g>
                </g>
                <g transform="matrix(1,0,0,1,90.415,144.7)">
                    <g transform="matrix(1,0,0,1,-3084,0)">
                        <rect x="3397" y="671" width="99.385" height="99.385" style="fill:none;stroke:rgb(245,245,245);stroke-opacity:0;stroke-width:29.44px;"/>
                    </g>
                    <g transform="matrix(1,0,0,1,-3033.39,-144.757)">
                        <text x="3359px" y="893px" style="font-family:'Ubuntu', sans-serif;font-size:75px;fill:rgb(245,245,245);">21</text>
                    </g>
                </g>
                <g transform="matrix(1,0,0,1,577.315,144.7)">
                    <g transform="matrix(1,0,0,1,-3084,0)">
                        <rect x="3397" y="671" width="99.385" height="99.385" style="fill:none;stroke:rgb(245,245,245);stroke-opacity:0;stroke-width:29.44px;"/>
                    </g>
                    <g transform="matrix(1,0,0,1,-3040.14,-144.757)">
                        <text x="3359px" y="893px" style="font-family:'Ubuntu', sans-serif;font-size:75px;fill:rgb(245,245,245);">24</text>
                    </g>
                </g>
                <g transform="matrix(1,0,0,1,252.715,144.7)">
                    <g transform="matrix(1,0,0,1,-3084,0)">
                        <rect x="3397" y="671" width="99.385" height="99.385" style="fill:none;stroke:rgb(245,245,245);stroke-opacity:0;stroke-width:29.44px;"/>
                    </g>
                    <g transform="matrix(1,0,0,1,-3036.34,-144.195)">
                        <text x="3359px" y="893px" style="font-family:'Ubuntu', sans-serif;font-size:75px;fill:rgb(245,245,245);">22</text>
                    </g>
                </g>
                <g transform="matrix(1,0,0,1,415.015,144.7)">
                    <g transform="matrix(1,0,0,1,-3084,0)">
                        <rect x="3397" y="671" width="99.385" height="99.385" style="fill:none;stroke:rgb(245,245,245);stroke-opacity:0;stroke-width:29.44px;"/>
                    </g>
                    <g transform="matrix(1,0,0,1,-3039.01,-145.32)">
                        <text x="3359px" y="893px" style="font-family:'Ubuntu', sans-serif;font-size:75px;fill:rgb(245,245,245);">23</text>
                    </g>
                </g>
                <g transform="matrix(1,0,0,1,739.615,144.7)">
                    <g transform="matrix(1,0,0,1,-3084,0)">
                        <rect x="3397" y="671" width="99.385" height="99.385" style="fill:none;stroke:rgb(245,245,245);stroke-opacity:0;stroke-width:29.44px;"/>
                    </g>
                    <g transform="matrix(1,0,0,1,-3037.97,-145.32)">
                        <text x="3359px" y="893px" style="font-family:'Ubuntu', sans-serif;font-size:75px;fill:rgb(245,245,245);">25</text>
                    </g>
                </g>
            </g>
            <g transform="matrix(1,0,0,1,4.54747e-13,225.7)">
                <g transform="matrix(1,0,0,1,-221.885,144.7)">
                    <g transform="matrix(1,0,0,1,-3084,0)">
                        <rect x="3397" y="671" width="99.385" height="99.385" style="fill:none;stroke:rgb(245,245,245);stroke-opacity:0;stroke-width:29.44px;"/>
                    </g>
                    <g transform="matrix(1,0,0,1,-3042.32,-146.32)">
                        <text x="3359px" y="893px" style="font-family:'Ubuntu', sans-serif;font-size:75px;fill:rgb(245,245,245);">12</text>
                    </g>
                </g>
                <g transform="matrix(1,0,0,1,-71.885,144.7)">
                    <g transform="matrix(1,0,0,1,-3084,0)">
                        <rect x="3397" y="671" width="99.385" height="99.385" style="fill:none;stroke:rgb(245,245,245);stroke-opacity:0;stroke-width:29.44px;"/>
                    </g>
                    <g transform="matrix(1,0,0,1,-3039.28,-146.32)">
                        <text x="3359px" y="893px" style="font-family:'Ubuntu', sans-serif;font-size:75px;fill:rgb(245,245,245);">13</text>
                    </g>
                </g>
                <g transform="matrix(1,0,0,1,90.415,144.7)">
                    <g transform="matrix(1,0,0,1,-3084,0)">
                        <rect x="3397" y="671" width="99.385" height="99.385" style="fill:none;stroke:rgb(245,245,245);stroke-opacity:0;stroke-width:29.44px;"/>
                    </g>
                    <g transform="matrix(1,0,0,1,-3039.63,-145.195)">
                        <text x="3359px" y="893px" style="font-family:'Ubuntu', sans-serif;font-size:75px;fill:rgb(245,245,245);">14</text>
                    </g>
                </g>
                <g transform="matrix(1,0,0,1,577.315,144.7)">
                    <g transform="matrix(1,0,0,1,-3084,0)">
                        <rect x="3397" y="671" width="99.385" height="99.385" style="fill:none;stroke:rgb(245,245,245);stroke-opacity:0;stroke-width:29.44px;"/>
                    </g>
                    <g transform="matrix(1,0,0,1,-3040.74,-146.32)">
                        <text x="3359px" y="893px" style="font-family:'Ubuntu', sans-serif;font-size:75px;fill:rgb(245,245,245);">17</text>
                    </g>
                </g>
                <g transform="matrix(1,0,0,1,252.715,144.7)">
                    <g transform="matrix(1,0,0,1,-3084,0)">
                        <rect x="3397" y="671" width="99.385" height="99.385" style="fill:none;stroke:rgb(245,245,245);stroke-opacity:0;stroke-width:29.44px;"/>
                    </g>
                    <g transform="matrix(1,0,0,1,-3037.77,-146.32)">
                        <text x="3359px" y="893px" style="font-family:'Ubuntu', sans-serif;font-size:75px;fill:rgb(245,245,245);">15</text>
                    </g>
                </g>
                <g transform="matrix(1,0,0,1,415.015,144.7)">
                    <g transform="matrix(1,0,0,1,-3084,0)">
                        <rect x="3397" y="671" width="99.385" height="99.385" style="fill:none;stroke:rgb(245,245,245);stroke-opacity:0;stroke-width:29.44px;"/>
                    </g>
                    <g transform="matrix(1,0,0,1,-3040.18,-146.095)">
                        <text x="3359px" y="893px" style="font-family:'Ubuntu', sans-serif;font-size:75px;fill:rgb(245,245,245);">16</text>
                    </g>
                </g>
                <g transform="matrix(1,0,0,1,739.615,144.7)">
                    <g transform="matrix(1,0,0,1,-3084,0)">
                        <rect x="3397" y="671" width="99.385" height="99.385" style="fill:none;stroke:rgb(245,245,245);stroke-opacity:0;stroke-width:29.44px;"/>
                    </g>
                    <g transform="matrix(1,0,0,1,-3044.34,-145.607)">
                        <text x="3359px" y="893px" style="font-family:'Ubuntu', sans-serif;font-size:75px;fill:rgb(245,245,245);">18</text>
                    </g>
                </g>
            </g>
            <g>
                <g transform="matrix(1,0,0,1,-221.885,144.7)">
                    <g transform="matrix(1,0,0,1,-3084,0)">
                        <rect x="3397" y="671" width="99.385" height="99.385" style="fill:none;stroke:rgb(245,245,245);stroke-opacity:0;stroke-width:29.44px;"/>
                    </g>
                    <g transform="matrix(1,0,0,1,-3017.16,-146.32)">
                        <text x="3359px" y="893px" style="font-family:'Ubuntu', sans-serif;font-size:75px;fill:rgb(245,245,245);">5</text>
                    </g>
                </g>
                <g transform="matrix(1,0,0,1,-71.885,144.7)">
                    <g transform="matrix(1,0,0,1,-3084,0)">
                        <rect x="3397" y="671" width="99.385" height="99.385" style="fill:none;stroke:rgb(245,245,245);stroke-opacity:0;stroke-width:29.44px;"/>
                    </g>
                    <g transform="matrix(1,0,0,1,-3017.91,-146.77)">
                        <text x="3359px" y="893px" style="font-family:'Ubuntu', sans-serif;font-size:75px;fill:rgb(245,245,245);">6</text>
                    </g>
                </g>
                <g transform="matrix(1,0,0,1,90.415,144.7)">
                    <g transform="matrix(1,0,0,1,-3084,0)">
                        <rect x="3397" y="671" width="99.385" height="99.385" style="fill:none;stroke:rgb(245,245,245);stroke-opacity:0;stroke-width:29.44px;"/>
                    </g>
                    <g transform="matrix(1,0,0,1,-3018.63,-145.195)">
                        <text x="3359px" y="893px" style="font-family:'Ubuntu', sans-serif;font-size:75px;fill:rgb(245,245,245);">7</text>
                    </g>
                </g>
                <g transform="matrix(1,0,0,1,577.315,144.7)">
                    <g transform="matrix(1,0,0,1,-3084,0)">
                        <rect x="3397" y="671" width="99.385" height="99.385" style="fill:none;stroke:rgb(245,245,245);stroke-opacity:0;stroke-width:29.44px;"/>
                    </g>
                    <g transform="matrix(1,0,0,1,-3040.22,-147.445)">
                        <text x="3359px" y="893px" style="font-family:'Ubuntu', sans-serif;font-size:75px;fill:rgb(245,245,245);">10</text>
                    </g>
                </g>
                <g transform="matrix(1,0,0,1,252.715,144.7)">
                    <g transform="matrix(1,0,0,1,-3084,0)">
                        <rect x="3397" y="671" width="99.385" height="99.385" style="fill:none;stroke:rgb(245,245,245);stroke-opacity:0;stroke-width:29.44px;"/>
                    </g>
                    <g transform="matrix(1,0,0,1,-3017.31,-145.12)">
                        <text x="3359px" y="893px" style="font-family:'Ubuntu', sans-serif;font-size:75px;fill:rgb(245,245,245);">8</text>
                    </g>
                </g>
                <g transform="matrix(1,0,0,1,415.015,144.7)">
                    <g transform="matrix(1,0,0,1,-3084,0)">
                        <rect x="3397" y="671" width="99.385" height="99.385" style="fill:none;stroke:rgb(245,245,245);stroke-opacity:0;stroke-width:29.44px;"/>
                    </g>
                    <g transform="matrix(1,0,0,1,-3017.01,-145.195)">
                        <text x="3359px" y="893px" style="font-family:'Ubuntu', sans-serif;font-size:75px;fill:rgb(245,245,245);">9</text>
                    </g>
                </g>
                <g transform="matrix(1,0,0,1,739.615,144.7)">
                    <g transform="matrix(1,0,0,1,-3084,0)">
                        <rect x="3397" y="671" width="99.385" height="99.385" style="fill:none;stroke:rgb(245,245,245);stroke-opacity:0;stroke-width:29.44px;"/>
                    </g>
                    <g transform="matrix(1,0,0,1,-3034.78,-145.195)">
                        <text x="3359px" y="893px" style="font-family:'Ubuntu', sans-serif;font-size:75px;fill:rgb(245,245,245);">11</text>
                    </g>
                </g>
            </g>
            <g>
                <g transform="matrix(1,0,0,1,576.2,-81)">
                    <g transform="matrix(1,0,0,1,-3084,0)">
                        <rect x="3397" y="671" width="99.385" height="99.385" style="fill:none;stroke:rgb(245,245,245);stroke-opacity:0;stroke-width:29.44px;"/>
                    </g>
                    <g transform="matrix(1,0,0,1,-3013.63,-146.32)">
                        <text x="3359px" y="893px" style="font-family:'Ubuntu', sans-serif;font-size:75px;fill:rgb(245,245,245);">3</text>
                    </g>
                </g>
                <g transform="matrix(1,0,0,1,251.6,-81)">
                    <g transform="matrix(1,0,0,1,-3084,0)">
                        <rect x="3397" y="671" width="99.385" height="99.385" style="fill:none;stroke:rgb(245,245,245);stroke-opacity:0;stroke-width:29.44px;"/>
                    </g>
                    <g transform="matrix(1,0,0,1,-3013.63,-146.32)">
                        <text x="3359px" y="893px" style="font-family:'Ubuntu', sans-serif;font-size:75px;fill:rgb(245,245,245);">1</text>
                    </g>
                </g>
                <g transform="matrix(1,0,0,1,413.9,-81)">
                    <g transform="matrix(1,0,0,1,-3084,0)">
                        <rect x="3397" y="671" width="99.385" height="99.385" style="fill:none;stroke:rgb(245,245,245);stroke-opacity:0;stroke-width:29.44px;"/>
                    </g>
                    <g transform="matrix(1,0,0,1,-3013.63,-146.32)">
                        <text x="3359px" y="893px" style="font-family:'Ubuntu', sans-serif;font-size:75px;fill:rgb(245,245,245);">2</text>
                    </g>
                </g>
                <g transform="matrix(1,0,0,1,738.5,-81)">
                    <g transform="matrix(1,0,0,1,-3084,0)">
                        <rect x="3397" y="671" width="99.385" height="99.385" style="fill:none;stroke:rgb(245,245,245);stroke-opacity:0;stroke-width:29.44px;"/>
                    </g>
                    <g transform="matrix(1,0,0,1,-3017.63,-146.32)">
                        <text x="3359px" y="893px" style="font-family:'Ubuntu', sans-serif;font-size:75px;fill:rgb(245,245,245);">4</text>
                    </g>
                </g>
            </g>
            <g>
                <g transform="matrix(0.869565,0,0,0.869565,-2109.06,1140.26)">
                    <path d="M3318.5,554C3337.54,554 3353,569.459 3353,588.5C3353,607.541 3337.54,623 3318.5,623C3299.46,623 3284,607.541 3284,588.5C3284,569.459 3299.46,554 3318.5,554ZM3318.5,601.963C3311.07,601.963 3305.04,595.93 3305.04,588.5C3305.04,581.07 3311.07,575.037 3318.5,575.037C3325.93,575.037 3331.96,581.07 3331.96,588.5C3331.96,595.93 3325.93,601.963 3318.5,601.963Z" style="fill:rgb(255,159,28);"/>
                </g>
                <g transform="matrix(0.869565,0,0,0.869565,-2268.65,1140.26)">
                    <path d="M3318.5,554C3337.54,554 3353,569.459 3353,588.5C3353,607.541 3337.54,623 3318.5,623C3299.46,623 3284,607.541 3284,588.5C3284,569.459 3299.46,554 3318.5,554ZM3318.5,601.963C3311.07,601.963 3305.04,595.93 3305.04,588.5C3305.04,581.07 3311.07,575.037 3318.5,575.037C3325.93,575.037 3331.96,581.07 3331.96,588.5C3331.96,595.93 3325.93,601.963 3318.5,601.963Z" style="fill:rgb(255,159,28);"/>
                </g>
                <g transform="matrix(0.869565,0,0,0.869565,-2432.54,1140.26)">
                    <path d="M3318.5,554C3337.54,554 3353,569.459 3353,588.5C3353,607.541 3337.54,623 3318.5,623C3299.46,623 3284,607.541 3284,588.5C3284,569.459 3299.46,554 3318.5,554ZM3318.5,601.963C3311.07,601.963 3305.04,595.93 3305.04,588.5C3305.04,581.07 3311.07,575.037 3318.5,575.037C3325.93,575.037 3331.96,581.07 3331.96,588.5C3331.96,595.93 3325.93,601.963 3318.5,601.963Z" style="fill:rgb(255,159,28);"/>
                </g>
                <g transform="matrix(0.869565,0,0,0.869565,-2594.84,1140.26)">
                    <path d="M3318.5,554C3337.54,554 3353,569.459 3353,588.5C3353,607.541 3337.54,623 3318.5,623C3299.46,623 3284,607.541 3284,588.5C3284,569.459 3299.46,554 3318.5,554ZM3318.5,601.963C3311.07,601.963 3305.04,595.93 3305.04,588.5C3305.04,581.07 3311.07,575.037 3318.5,575.037C3325.93,575.037 3331.96,581.07 3331.96,588.5C3331.96,595.93 3325.93,601.963 3318.5,601.963Z" style="fill:rgb(255,159,28);"/>
                </g>
                <g transform="matrix(0.869565,0,0,0.869565,-2744.84,1140.26)">
                    <path d="M3318.5,554C3337.54,554 3353,569.459 3353,588.5C3353,607.541 3337.54,623 3318.5,623C3299.46,623 3284,607.541 3284,588.5C3284,569.459 3299.46,554 3318.5,554ZM3318.5,601.963C3311.07,601.963 3305.04,595.93 3305.04,588.5C3305.04,581.07 3311.07,575.037 3318.5,575.037C3325.93,575.037 3331.96,581.07 3331.96,588.5C3331.96,595.93 3325.93,601.963 3318.5,601.963Z" style="fill:rgb(255,159,28);"/>
                </g>
            </g>
            <g>
                <g transform="matrix(0.869565,0,0,0.869565,-2109.06,922.261)">
                    <path d="M3318.5,554C3337.54,554 3353,569.459 3353,588.5C3353,607.541 3337.54,623 3318.5,623C3299.46,623 3284,607.541 3284,588.5C3284,569.459 3299.46,554 3318.5,554ZM3318.5,601.963C3311.07,601.963 3305.04,595.93 3305.04,588.5C3305.04,581.07 3311.07,575.037 3318.5,575.037C3325.93,575.037 3331.96,581.07 3331.96,588.5C3331.96,595.93 3325.93,601.963 3318.5,601.963Z" style="fill:rgb(255,159,28);"/>
                </g>
                <g transform="matrix(0.869565,0,0,0.869565,-2268.65,922.261)">
                    <path d="M3318.5,554C3337.54,554 3353,569.459 3353,588.5C3353,607.541 3337.54,623 3318.5,623C3299.46,623 3284,607.541 3284,588.5C3284,569.459 3299.46,554 3318.5,554ZM3318.5,601.963C3311.07,601.963 3305.04,595.93 3305.04,588.5C3305.04,581.07 3311.07,575.037 3318.5,575.037C3325.93,575.037 3331.96,581.07 3331.96,588.5C3331.96,595.93 3325.93,601.963 3318.5,601.963Z" style="fill:rgb(255,159,28);"/>
                </g>
                <g transform="matrix(0.869565,0,0,0.869565,-2432.54,922.261)">
                    <path d="M3318.5,554C3337.54,554 3353,569.459 3353,588.5C3353,607.541 3337.54,623 3318.5,623C3299.46,623 3284,607.541 3284,588.5C3284,569.459 3299.46,554 3318.5,554ZM3318.5,601.963C3311.07,601.963 3305.04,595.93 3305.04,588.5C3305.04,581.07 3311.07,575.037 3318.5,575.037C3325.93,575.037 3331.96,581.07 3331.96,588.5C3331.96,595.93 3325.93,601.963 3318.5,601.963Z" style="fill:rgb(255,159,28);"/>
                </g>
                <g transform="matrix(0.869565,0,0,0.869565,-2594.84,918.261)">
                    <path d="M3318.5,554C3337.54,554 3353,569.459 3353,588.5C3353,607.541 3337.54,623 3318.5,623C3299.46,623 3284,607.541 3284,588.5C3284,569.459 3299.46,554 3318.5,554ZM3318.5,601.963C3311.07,601.963 3305.04,595.93 3305.04,588.5C3305.04,581.07 3311.07,575.037 3318.5,575.037C3325.93,575.037 3331.96,581.07 3331.96,588.5C3331.96,595.93 3325.93,601.963 3318.5,601.963Z" style="fill:rgb(255,159,28);"/>
                </g>
                <g transform="matrix(0.869565,0,0,0.869565,-2744.84,918.261)">
                    <path d="M3318.5,554C3337.54,554 3353,569.459 3353,588.5C3353,607.541 3337.54,623 3318.5,623C3299.46,623 3284,607.541 3284,588.5C3284,569.459 3299.46,554 3318.5,554ZM3318.5,601.963C3311.07,601.963 3305.04,595.93 3305.04,588.5C3305.04,581.07 3311.07,575.037 3318.5,575.037C3325.93,575.037 3331.96,581.07 3331.96,588.5C3331.96,595.93 3325.93,601.963 3318.5,601.963Z" style="fill:rgb(255,159,28);"/>
                </g>
            </g>
            <g>
                <g transform="matrix(0.869565,0,0,0.869565,-2109.06,690.261)">
                    <path d="M3318.5,554C3337.54,554 3353,569.459 3353,588.5C3353,607.541 3337.54,623 3318.5,623C3299.46,623 3284,607.541 3284,588.5C3284,569.459 3299.46,554 3318.5,554ZM3318.5,601.963C3311.07,601.963 3305.04,595.93 3305.04,588.5C3305.04,581.07 3311.07,575.037 3318.5,575.037C3325.93,575.037 3331.96,581.07 3331.96,588.5C3331.96,595.93 3325.93,601.963 3318.5,601.963Z" style="fill:rgb(255,159,28);"/>
                </g>
                <g transform="matrix(0.869565,0,0,0.869565,-2270.24,690.261)">
                    <path d="M3318.5,554C3337.54,554 3353,569.459 3353,588.5C3353,607.541 3337.54,623 3318.5,623C3299.46,623 3284,607.541 3284,588.5C3284,569.459 3299.46,554 3318.5,554ZM3318.5,601.963C3311.07,601.963 3305.04,595.93 3305.04,588.5C3305.04,581.07 3311.07,575.037 3318.5,575.037C3325.93,575.037 3331.96,581.07 3331.96,588.5C3331.96,595.93 3325.93,601.963 3318.5,601.963Z" style="fill:rgb(255,159,28);"/>
                </g>
                <g transform="matrix(0.869565,0,0,0.869565,-2432.54,690.261)">
                    <path d="M3318.5,554C3337.54,554 3353,569.459 3353,588.5C3353,607.541 3337.54,623 3318.5,623C3299.46,623 3284,607.541 3284,588.5C3284,569.459 3299.46,554 3318.5,554ZM3318.5,601.963C3311.07,601.963 3305.04,595.93 3305.04,588.5C3305.04,581.07 3311.07,575.037 3318.5,575.037C3325.93,575.037 3331.96,581.07 3331.96,588.5C3331.96,595.93 3325.93,601.963 3318.5,601.963Z" style="fill:rgb(255,159,28);"/>
                </g>
                <g transform="matrix(0.869565,0,0,0.869565,-2594.84,690.261)">
                    <path d="M3318.5,554C3337.54,554 3353,569.459 3353,588.5C3353,607.541 3337.54,623 3318.5,623C3299.46,623 3284,607.541 3284,588.5C3284,569.459 3299.46,554 3318.5,554ZM3318.5,601.963C3311.07,601.963 3305.04,595.93 3305.04,588.5C3305.04,581.07 3311.07,575.037 3318.5,575.037C3325.93,575.037 3331.96,581.07 3331.96,588.5C3331.96,595.93 3325.93,601.963 3318.5,601.963Z" style="fill:rgb(255,159,28);"/>
                </g>
                <g transform="matrix(0.869565,0,0,0.869565,-2744.84,690.261)">
                    <path d="M3318.5,554C3337.54,554 3353,569.459 3353,588.5C3353,607.541 3337.54,623 3318.5,623C3299.46,623 3284,607.541 3284,588.5C3284,569.459 3299.46,554 3318.5,554ZM3318.5,601.963C3311.07,601.963 3305.04,595.93 3305.04,588.5C3305.04,581.07 3311.07,575.037 3318.5,575.037C3325.93,575.037 3331.96,581.07 3331.96,588.5C3331.96,595.93 3325.93,601.963 3318.5,601.963Z" style="fill:rgb(255,159,28);"/>
                </g>
            </g>
            <g>
                <g transform="matrix(0.869565,0,0,0.869565,-2109.06,234.261)">
                    <path d="M3318.5,554C3337.54,554 3353,569.459 3353,588.5C3353,607.541 3337.54,623 3318.5,623C3299.46,623 3284,607.541 3284,588.5C3284,569.459 3299.46,554 3318.5,554ZM3318.5,601.963C3311.07,601.963 3305.04,595.93 3305.04,588.5C3305.04,581.07 3311.07,575.037 3318.5,575.037C3325.93,575.037 3331.96,581.07 3331.96,588.5C3331.96,595.93 3325.93,601.963 3318.5,601.963Z" style="fill:rgb(255,159,28);"/>
                </g>
                <g transform="matrix(0.869565,0,0,0.869565,-2268.65,234.261)">
                    <path d="M3318.5,554C3337.54,554 3353,569.459 3353,588.5C3353,607.541 3337.54,623 3318.5,623C3299.46,623 3284,607.541 3284,588.5C3284,569.459 3299.46,554 3318.5,554ZM3318.5,601.963C3311.07,601.963 3305.04,595.93 3305.04,588.5C3305.04,581.07 3311.07,575.037 3318.5,575.037C3325.93,575.037 3331.96,581.07 3331.96,588.5C3331.96,595.93 3325.93,601.963 3318.5,601.963Z" style="fill:rgb(255,159,28);"/>
                </g>
            </g>
            <g>
                <g transform="matrix(0.869565,0,0,0.869565,-2109.06,462.261)">
                    <path d="M3318.5,554C3337.54,554 3353,569.459 3353,588.5C3353,607.541 3337.54,623 3318.5,623C3299.46,623 3284,607.541 3284,588.5C3284,569.459 3299.46,554 3318.5,554ZM3318.5,601.963C3311.07,601.963 3305.04,595.93 3305.04,588.5C3305.04,581.07 3311.07,575.037 3318.5,575.037C3325.93,575.037 3331.96,581.07 3331.96,588.5C3331.96,595.93 3325.93,601.963 3318.5,601.963Z" style="fill:rgb(255,159,28);"/>
                </g>
                <g transform="matrix(0.869565,0,0,0.869565,-2268.65,462.261)">
                    <path d="M3318.5,554C3337.54,554 3353,569.459 3353,588.5C3353,607.541 3337.54,623 3318.5,623C3299.46,623 3284,607.541 3284,588.5C3284,569.459 3299.46,554 3318.5,554ZM3318.5,601.963C3311.07,601.963 3305.04,595.93 3305.04,588.5C3305.04,581.07 3311.07,575.037 3318.5,575.037C3325.93,575.037 3331.96,581.07 3331.96,588.5C3331.96,595.93 3325.93,601.963 3318.5,601.963Z" style="fill:rgb(255,159,28);"/>
                </g>
                <g transform="matrix(0.869565,0,0,0.869565,-2432.54,462.261)">
                    <path d="M3318.5,554C3337.54,554 3353,569.459 3353,588.5C3353,607.541 3337.54,623 3318.5,623C3299.46,623 3284,607.541 3284,588.5C3284,569.459 3299.46,554 3318.5,554ZM3318.5,601.963C3311.07,601.963 3305.04,595.93 3305.04,588.5C3305.04,581.07 3311.07,575.037 3318.5,575.037C3325.93,575.037 3331.96,581.07 3331.96,588.5C3331.96,595.93 3325.93,601.963 3318.5,601.963Z" style="fill:rgb(255,159,28);"/>
                </g>
                <g transform="matrix(0.869565,0,0,0.869565,-2594.84,462.261)">
                    <path d="M3318.5,554C3337.54,554 3353,569.459 3353,588.5C3353,607.541 3337.54,623 3318.5,623C3299.46,623 3284,607.541 3284,588.5C3284,569.459 3299.46,554 3318.5,554ZM3318.5,601.963C3311.07,601.963 3305.04,595.93 3305.04,588.5C3305.04,581.07 3311.07,575.037 3318.5,575.037C3325.93,575.037 3331.96,581.07 3331.96,588.5C3331.96,595.93 3325.93,601.963 3318.5,601.963Z" style="fill:rgb(255,159,28);"/>
                </g>
                <g transform="matrix(0.869565,0,0,0.869565,-2744.84,462.261)">
                    <path d="M3318.5,554C3337.54,554 3353,569.459 3353,588.5C3353,607.541 3337.54,623 3318.5,623C3299.46,623 3284,607.541 3284,588.5C3284,569.459 3299.46,554 3318.5,554ZM3318.5,601.963C3311.07,601.963 3305.04,595.93 3305.04,588.5C3305.04,581.07 3311.07,575.037 3318.5,575.037C3325.93,575.037 3331.96,581.07 3331.96,588.5C3331.96,595.93 3325.93,601.963 3318.5,601.963Z" style="fill:rgb(255,159,28);"/>
                </g>
            </g>
        </g>
    </g>
    <g transform="matrix(0.203452,0,0,0.203804,179.312,75)">
        <g transform="matrix(1.21289,0,0,3.68,4.54747e-13,-9.09495e-13)">
            <rect x="0" y="0" width="1024" height="600" style="fill:rgb(32,32,32);"/>
        </g>
        <g transform="matrix(3.75,0,0,3.75,-1502.68,-394.311)">
            <g transform="matrix(0.506553,0,0,0.30303,396.348,216.796)">
                <path d="M368,435.25C368,430.697 365.785,427 363.056,427L60.944,427C58.215,427 56,430.697 56,435.25L56,451.75C56,456.303 58.215,460 60.944,460L363.056,460C365.785,460 368,456.303 368,451.75L368,435.25Z" style="fill:rgb(245,245,245);"/>
            </g>
            <g transform="matrix(0.555067,0,0,0.30303,393.631,164.796)">
                <path d="M368,435.25C368,430.697 365.978,427 363.488,427L60.512,427C58.022,427 56,430.697 56,435.25L56,451.75C56,456.303 58.022,460 60.512,460L363.488,460C365.978,460 368,456.303 368,451.75L368,435.25Z" style="fill:rgb(245,245,245);"/>
            </g>
            <g transform="matrix(0.376923,0,0,0.30303,403.607,190.796)">
                <path d="M368,435.25C368,430.697 365.023,427 361.356,427L62.644,427C58.977,427 56,430.697 56,435.25L56,451.75C56,456.303 58.977,460 62.644,460L361.356,460C365.023,460 368,456.303 368,451.75L368,435.25Z" style="fill:rgb(245,245,245);"/>
            </g>
            <g transform="matrix(0.334477,0,0,0.37263,-130.953,34.1169)">
                <rect x="1661.3" y="652.853" width="846.696" height="2.147" style="fill:rgb(102,102,102);"/>
            </g>
            <g transform="matrix(0.375009,0,0,0.375009,181.328,-72.3539)">
                <text x="647px" y="883.376px" style="font-family:'Ubuntu', sans-serif;font-size:36px;fill:rgb(245,245,245);">2020/04/28</text>
            </g>
        </g>
        <g transform="matrix(3.75,0,0,3.75,-1502.68,100.089)">
            <g transform="matrix(0.506553,0,0,0.30303,396.348,216.796)">
                <path d="M368,435.25C368,430.697 365.785,427 363.056,427L60.944,427C58.215,427 56,430.697 56,435.25L56,451.75C56,456.303 58.215,460 60.944,460L363.056,460C365.785,460 368,456.303 368,451.75L368,435.25Z" style="fill:rgb(245,245,245);"/>
            </g>
            <g transform="matrix(0.739031,0,0,0.30303,383.329,242.676)">
                <path d="M368,435.25C368,430.697 366.482,427 364.611,427L59.389,427C57.518,427 56,430.697 56,435.25L56,451.75C56,456.303 57.518,460 59.389,460L364.611,460C366.482,460 368,456.303 368,451.75L368,435.25Z" style="fill:rgb(245,245,245);"/>
            </g>
            <g transform="matrix(0.555067,0,0,0.30303,393.631,164.796)">
                <path d="M368,435.25C368,430.697 365.978,427 363.488,427L60.512,427C58.022,427 56,430.697 56,435.25L56,451.75C56,456.303 58.022,460 60.512,460L363.488,460C365.978,460 368,456.303 368,451.75L368,435.25Z" style="fill:rgb(245,245,245);"/>
            </g>
            <g transform="matrix(0.376923,0,0,0.30303,403.607,190.796)">
                <path d="M368,435.25C368,430.697 365.023,427 361.356,427L62.644,427C58.977,427 56,430.697 56,435.25L56,451.75C56,456.303 58.977,460 62.644,460L361.356,460C365.023,460 368,456.303 368,451.75L368,435.25Z" style="fill:rgb(245,245,245);"/>
            </g>
            <g transform="matrix(0.334477,0,0,0.37263,-130.953,34.1169)">
                <rect x="1661.3" y="652.853" width="846.696" height="2.147" style="fill:rgb(102,102,102);"/>
            </g>
            <g transform="matrix(0.375009,0,0,0.375009,181.328,-72.3539)">
                <text x="647px" y="883.376px" style="font-family:'Ubuntu', sans-serif;font-size:36px;fill:rgb(245,245,245);">2020/03/08</text>
            </g>
        </g>
        <g transform="matrix(3.75,0,0,3.75,-1502.68,691.689)">
            <g transform="matrix(0.506553,0,0,0.30303,396.348,216.796)">
                <path d="M368,435.25C368,430.697 365.785,427 363.056,427L60.944,427C58.215,427 56,430.697 56,435.25L56,451.75C56,456.303 58.215,460 60.944,460L363.056,460C365.785,460 368,456.303 368,451.75L368,435.25Z" style="fill:rgb(245,245,245);"/>
            </g>
            <g transform="matrix(0.555067,0,0,0.30303,393.631,164.796)">
                <path d="M368,435.25C368,430.697 365.978,427 363.488,427L60.512,427C58.022,427 56,430.697 56,435.25L56,451.75C56,456.303 58.022,460 60.512,460L363.488,460C365.978,460 368,456.303 368,451.75L368,435.25Z" style="fill:rgb(245,245,245);"/>
            </g>
            <g transform="matrix(0.376923,0,0,0.30303,403.607,190.796)">
                <path d="M368,435.25C368,430.697 365.023,427 361.356,427L62.644,427C58.977,427 56,430.697 56,435.25L56,451.75C56,456.303 58.977,460 62.644,460L361.356,460C365.023,460 368,456.303 368,451.75L368,435.25Z" style="fill:rgb(245,245,245);"/>
            </g>
            <g transform="matrix(0.334477,0,0,0.37263,-130.953,34.1169)">
                <rect x="1661.3" y="652.853" width="846.696" height="2.147" style="fill:rgb(102,102,102);"/>
            </g>
            <g transform="matrix(0.375009,0,0,0.375009,181.328,-72.3539)">
                <text x="647px" y="883.376px" style="font-family:'Ubuntu', sans-serif;font-size:36px;fill:rgb(245,245,245);">2020/02/29</text>
            </g>
        </g>
        <g transform="matrix(2.37619,0,0,3.75,-860.475,-3.75)">
            <g transform="matrix(1.43248,0,0,0.606061,319.781,-159.788)">
                <path d="M368,435.25C368,430.697 365.527,427 362.482,427L61.518,427C58.473,427 56,430.697 56,435.25L56,451.75C56,456.303 58.473,460 61.518,460L362.482,460C365.527,460 368,456.303 368,451.75L368,435.25Z" style="fill:none;stroke:rgb(245,245,245);stroke-width:10.18px;"/>
            </g>
            <g transform="matrix(1.18109,0,0,1.51515,333.859,-621.97)">
                <path d="M368,430.96C368,428.774 364.401,427 359.969,427L64.031,427C59.599,427 56,428.774 56,430.96L56,456.04C56,458.226 59.599,460 64.031,460L359.969,460C364.401,460 368,458.226 368,456.04L368,430.96Z" style="fill:rgb(245,245,245);"/>
            </g>
        </g>
    </g>
    <g transform="matrix(0.2259,0,0,0.226449,371.716,50)">
        <g transform="matrix(1.21289,0,0,3.68,8.52651e-14,0)">
            <rect x="0" y="0" width="1024" height="600" style="fill:rgb(32,32,32);stroke:rgb(245,245,245);stroke-width:1.61px;"/>
        </g>
        <g transform="matrix(3.75,0,0,3.75,-1410,577.2)">
            <g transform="matrix(1.25867,0,0,0.248167,400,230)">
                <rect x="0" y="0" width="225" height="600" style="fill:rgb(51,51,51);"/>
            </g>
            <g transform="matrix(1,0,0,1,-1,-2.30954)">
                <g transform="matrix(1,0,0,1,-0.5,-1.99364)">
                    <g transform="matrix(0.555067,0,0,0.30303,433.916,154.831)">
                        <path d="M368,435.25C368,430.697 365.977,427 363.485,427L60.515,427C58.023,427 56,430.697 56,435.25L56,451.75C56,456.303 58.023,460 60.515,460L363.485,460C365.977,460 368,456.303 368,451.75L368,435.25Z" style="fill:rgb(245,245,245);"/>
                    </g>
                    <g transform="matrix(0.0625,0,0,0.440933,421.5,93.6709)">
                        <path d="M368,430.96C368,428.774 355.451,427 339.995,427L84.005,427C68.549,427 56,428.774 56,430.96L56,456.04C56,458.226 68.549,460 84.005,460L339.995,460C355.451,460 368,458.226 368,456.04L368,430.96ZM112.662,435.012L112.662,451.988L311.338,451.988L311.338,435.012L112.662,435.012Z" style="fill:rgb(255,159,28);"/>
                    </g>
                </g>
                <g transform="matrix(1,0,0,1,-0.5,32.5127)">
                    <g transform="matrix(0.376923,0,0,0.30303,443.892,154.831)">
                        <path d="M368,435.25C368,430.697 365.021,427 361.351,427L62.649,427C58.979,427 56,430.697 56,435.25L56,451.75C56,456.303 58.979,460 62.649,460L361.351,460C365.021,460 368,456.303 368,451.75L368,435.25Z" style="fill:rgb(245,245,245);"/>
                    </g>
                    <g transform="matrix(0.0625,0,0,0.440933,421.5,93.6709)">
                        <path d="M368,430.96C368,428.774 355.451,427 339.995,427L84.005,427C68.549,427 56,428.774 56,430.96L56,456.04C56,458.226 68.549,460 84.005,460L339.995,460C355.451,460 368,458.226 368,456.04L368,430.96ZM112.662,435.012L112.662,451.988L311.338,451.988L311.338,435.012L112.662,435.012Z" style="fill:rgb(255,159,28);"/>
                    </g>
                </g>
                <g transform="matrix(1.02222,0,0,1,-9.94444,67.0191)">
                    <g transform="matrix(0.495541,0,0,0.30303,437.25,154.831)">
                        <path d="M368,435.25C368,430.697 365.783,427 363.053,427L60.947,427C58.217,427 56,430.697 56,435.25L56,451.75C56,456.303 58.217,460 60.947,460L363.053,460C365.783,460 368,456.303 368,451.75L368,435.25Z" style="fill:rgb(245,245,245);"/>
                    </g>
                    <g transform="matrix(0.0625,0,0,0.440933,421.5,93.6709)">
                        <path d="M368,430.96C368,428.774 355.724,427 340.603,427L83.397,427C68.276,427 56,428.774 56,430.96L56,456.04C56,458.226 68.276,460 83.397,460L340.603,460C355.724,460 368,458.226 368,456.04L368,430.96ZM111.431,435.012L111.431,451.988L312.569,451.988L312.569,435.012L111.431,435.012Z" style="fill:rgb(255,159,28);"/>
                    </g>
                </g>
                <g transform="matrix(0.375009,0,0,0.375009,181.328,-71.439)">
                    <g transform="matrix(36,0,0,36,647,883.376)">
                        <path d="M0.655,-0.347C0.655,-0.287 0.646,-0.235 0.627,-0.191C0.608,-0.146 0.582,-0.11 0.548,-0.081C0.514,-0.051 0.473,-0.03 0.426,-0.016C0.379,-0.001 0.327,0.006 0.27,0.006C0.242,0.006 0.211,0.005 0.178,0.003C0.144,0 0.113,-0.004 0.086,-0.011L0.086,-0.683C0.113,-0.69 0.144,-0.694 0.178,-0.697C0.211,-0.699 0.242,-0.7 0.27,-0.7C0.327,-0.7 0.379,-0.693 0.426,-0.679C0.473,-0.664 0.514,-0.643 0.548,-0.614C0.582,-0.585 0.608,-0.548 0.627,-0.504C0.646,-0.459 0.655,-0.407 0.655,-0.347ZM0.278,-0.079C0.37,-0.079 0.439,-0.102 0.484,-0.15C0.529,-0.197 0.552,-0.262 0.552,-0.347C0.552,-0.432 0.529,-0.498 0.484,-0.545C0.439,-0.592 0.37,-0.615 0.278,-0.615C0.251,-0.615 0.23,-0.615 0.215,-0.614C0.2,-0.613 0.189,-0.613 0.183,-0.612L0.183,-0.082C0.189,-0.081 0.2,-0.081 0.215,-0.08C0.23,-0.079 0.251,-0.079 0.278,-0.079Z" style="fill:rgb(245,245,245);fill-rule:nonzero;"/>
                    </g>
                    <g transform="matrix(36,0,0,36,672.668,883.376)">
                        <path d="M0.058,-0.347C0.058,-0.406 0.067,-0.459 0.085,-0.504C0.102,-0.549 0.126,-0.587 0.157,-0.618C0.187,-0.648 0.222,-0.671 0.263,-0.686C0.303,-0.701 0.346,-0.709 0.391,-0.709C0.436,-0.709 0.478,-0.701 0.518,-0.686C0.557,-0.671 0.592,-0.648 0.622,-0.618C0.652,-0.587 0.676,-0.549 0.694,-0.504C0.711,-0.459 0.72,-0.406 0.72,-0.347C0.72,-0.288 0.711,-0.235 0.694,-0.19C0.676,-0.145 0.652,-0.107 0.622,-0.077C0.592,-0.046 0.557,-0.023 0.518,-0.008C0.478,0.007 0.436,0.015 0.391,0.015C0.346,0.015 0.303,0.007 0.263,-0.008C0.222,-0.023 0.187,-0.046 0.157,-0.077C0.126,-0.107 0.102,-0.145 0.085,-0.19C0.067,-0.235 0.058,-0.288 0.058,-0.347ZM0.16,-0.347C0.16,-0.305 0.165,-0.267 0.176,-0.233C0.187,-0.198 0.202,-0.169 0.222,-0.145C0.241,-0.121 0.265,-0.102 0.294,-0.09C0.322,-0.077 0.354,-0.07 0.389,-0.07C0.424,-0.07 0.456,-0.077 0.484,-0.09C0.512,-0.102 0.536,-0.121 0.556,-0.145C0.575,-0.169 0.59,-0.198 0.601,-0.233C0.612,-0.267 0.617,-0.305 0.617,-0.347C0.617,-0.389 0.612,-0.427 0.601,-0.462C0.59,-0.496 0.575,-0.525 0.556,-0.549C0.536,-0.573 0.512,-0.592 0.484,-0.605C0.456,-0.618 0.424,-0.624 0.389,-0.624C0.354,-0.624 0.322,-0.618 0.294,-0.605C0.265,-0.592 0.241,-0.573 0.222,-0.549C0.202,-0.525 0.187,-0.496 0.176,-0.462C0.165,-0.427 0.16,-0.389 0.16,-0.347Z" style="fill:rgb(245,245,245);fill-rule:nonzero;"/>
                    </g>
                    <g transform="matrix(36,0,0,36,700.676,883.376)">
                        <path d="M0.561,-0C0.546,-0.025 0.53,-0.052 0.511,-0.083C0.492,-0.114 0.471,-0.146 0.449,-0.179C0.427,-0.212 0.404,-0.245 0.381,-0.279C0.357,-0.313 0.333,-0.346 0.31,-0.378C0.287,-0.409 0.264,-0.439 0.242,-0.467C0.22,-0.495 0.2,-0.52 0.181,-0.541L0.181,-0L0.086,-0L0.086,-0.693L0.163,-0.693C0.194,-0.66 0.228,-0.621 0.264,-0.577C0.299,-0.532 0.335,-0.487 0.37,-0.44C0.405,-0.393 0.438,-0.346 0.469,-0.301C0.5,-0.256 0.526,-0.215 0.547,-0.18L0.547,-0.693L0.642,-0.693L0.642,-0L0.561,-0Z" style="fill:rgb(245,245,245);fill-rule:nonzero;"/>
                    </g>
                    <g transform="matrix(36,0,0,36,726.884,883.376)">
                        <path d="M0.086,-0L0.086,-0.693L0.509,-0.693L0.509,-0.61L0.183,-0.61L0.183,-0.404L0.473,-0.404L0.473,-0.323L0.183,-0.323L0.183,-0.083L0.534,-0.083L0.534,-0L0.086,-0Z" style="fill:rgb(245,245,245);fill-rule:nonzero;"/>
                    </g>
                </g>
            </g>
        </g>
        <g transform="matrix(3.75,0,0,3.75,-1410,-747.13)">
            <g transform="matrix(1.25867,0,0,0.248167,400,410.275)">
                <rect x="0" y="0" width="225" height="600" style="fill:rgb(51,51,51);"/>
            </g>
            <g transform="matrix(1,0,0,1,-1,177.965)">
                <g transform="matrix(1,0,0,1,-0.5,-1.99364)">
                    <g transform="matrix(0.250321,0,0,0.30303,450.982,154.831)">
                        <path d="M368,435.25C368,430.697 363.514,427 357.989,427L66.011,427C60.486,427 56,430.697 56,435.25L56,451.75C56,456.303 60.486,460 66.011,460L357.989,460C363.514,460 368,456.303 368,451.75L368,435.25Z" style="fill:rgb(245,245,245);"/>
                    </g>
                    <g transform="matrix(0.0625,0,0,0.440933,421.5,93.6709)">
                        <path d="M368,430.96C368,428.774 355.451,427 339.995,427L84.005,427C68.549,427 56,428.774 56,430.96L56,456.04C56,458.226 68.549,460 84.005,460L339.995,460C355.451,460 368,458.226 368,456.04L368,430.96ZM112.662,435.012L112.662,451.988L311.338,451.988L311.338,435.012L112.662,435.012Z" style="fill:rgb(245,245,245);"/>
                    </g>
                </g>
                <g transform="matrix(1,0,0,1,-0.5,32.5127)">
                    <g transform="matrix(0.601709,0,0,0.30303,431.304,154.831)">
                        <path d="M368,435.25C368,430.697 366.134,427 363.835,427L60.165,427C57.866,427 56,430.697 56,435.25L56,451.75C56,456.303 57.866,460 60.165,460L363.835,460C366.134,460 368,456.303 368,451.75L368,435.25Z" style="fill:rgb(245,245,245);"/>
                    </g>
                    <g transform="matrix(0.0625,0,0,0.440933,421.5,93.6709)">
                        <path d="M368,430.96C368,428.774 355.451,427 339.995,427L84.005,427C68.549,427 56,428.774 56,430.96L56,456.04C56,458.226 68.549,460 84.005,460L339.995,460C355.451,460 368,458.226 368,456.04L368,430.96ZM112.662,435.012L112.662,451.988L311.338,451.988L311.338,435.012L112.662,435.012Z" style="fill:rgb(245,245,245);"/>
                    </g>
                </g>
                <g transform="matrix(1,0,0,1,-0.5,67.0191)">
                    <g transform="matrix(0.378526,0,0,0.30303,443.803,154.831)">
                        <path d="M368,435.25C368,430.697 365.033,427 361.379,427L62.621,427C58.967,427 56,430.697 56,435.25L56,451.75C56,456.303 58.967,460 62.621,460L361.379,460C365.033,460 368,456.303 368,451.75L368,435.25Z" style="fill:rgb(245,245,245);"/>
                    </g>
                    <g transform="matrix(0.0625,0,0,0.440933,421.5,93.6709)">
                        <path d="M368,430.96C368,428.774 355.451,427 339.995,427L84.005,427C68.549,427 56,428.774 56,430.96L56,456.04C56,458.226 68.549,460 84.005,460L339.995,460C355.451,460 368,458.226 368,456.04L368,430.96ZM112.662,435.012L112.662,451.988L311.338,451.988L311.338,435.012L112.662,435.012Z" style="fill:rgb(245,245,245);"/>
                    </g>
                </g>
                <g transform="matrix(0.375009,0,0,0.375009,181.328,-71.7025)">
                    <g transform="matrix(36,0,0,36,647,883.376)">
                        <path d="M0.27,-0.7C0.367,-0.7 0.442,-0.682 0.495,-0.645C0.547,-0.607 0.573,-0.552 0.573,-0.479C0.573,-0.439 0.566,-0.405 0.552,-0.377C0.537,-0.348 0.517,-0.325 0.49,-0.308C0.462,-0.29 0.43,-0.277 0.391,-0.269C0.352,-0.261 0.309,-0.257 0.26,-0.257L0.183,-0.257L0.183,-0L0.086,-0L0.086,-0.683C0.113,-0.69 0.144,-0.694 0.178,-0.697C0.211,-0.699 0.242,-0.7 0.27,-0.7ZM0.278,-0.615C0.237,-0.615 0.205,-0.614 0.183,-0.612L0.183,-0.34L0.256,-0.34C0.289,-0.34 0.319,-0.342 0.346,-0.347C0.373,-0.351 0.395,-0.358 0.414,-0.369C0.432,-0.379 0.446,-0.393 0.456,-0.411C0.466,-0.429 0.471,-0.452 0.471,-0.48C0.471,-0.507 0.466,-0.529 0.456,-0.546C0.445,-0.563 0.431,-0.577 0.414,-0.588C0.396,-0.598 0.375,-0.605 0.352,-0.609C0.329,-0.613 0.304,-0.615 0.278,-0.615Z" style="fill:rgb(245,245,245);fill-rule:nonzero;"/>
                    </g>
                    <g transform="matrix(36,0,0,36,668.888,883.376)">
                        <path d="M0.086,-0L0.086,-0.693L0.509,-0.693L0.509,-0.61L0.183,-0.61L0.183,-0.404L0.473,-0.404L0.473,-0.323L0.183,-0.323L0.183,-0.083L0.534,-0.083L0.534,-0L0.086,-0Z" style="fill:rgb(245,245,245);fill-rule:nonzero;"/>
                    </g>
                    <g transform="matrix(36,0,0,36,689.444,883.376)">
                        <path d="M0.561,-0C0.546,-0.025 0.53,-0.052 0.511,-0.083C0.492,-0.114 0.471,-0.146 0.449,-0.179C0.427,-0.212 0.404,-0.245 0.381,-0.279C0.357,-0.313 0.333,-0.346 0.31,-0.378C0.287,-0.409 0.264,-0.439 0.242,-0.467C0.22,-0.495 0.2,-0.52 0.181,-0.541L0.181,-0L0.086,-0L0.086,-0.693L0.163,-0.693C0.194,-0.66 0.228,-0.621 0.264,-0.577C0.299,-0.532 0.335,-0.487 0.37,-0.44C0.405,-0.393 0.438,-0.346 0.469,-0.301C0.5,-0.256 0.526,-0.215 0.547,-0.18L0.547,-0.693L0.642,-0.693L0.642,-0L0.561,-0Z" style="fill:rgb(245,245,245);fill-rule:nonzero;"/>
                    </g>
                    <g transform="matrix(36,0,0,36,715.652,883.376)">
                        <path d="M0.655,-0.347C0.655,-0.287 0.646,-0.235 0.627,-0.191C0.608,-0.146 0.582,-0.11 0.548,-0.081C0.514,-0.051 0.473,-0.03 0.426,-0.016C0.379,-0.001 0.327,0.006 0.27,0.006C0.242,0.006 0.211,0.005 0.178,0.003C0.144,0 0.113,-0.004 0.086,-0.011L0.086,-0.683C0.113,-0.69 0.144,-0.694 0.178,-0.697C0.211,-0.699 0.242,-0.7 0.27,-0.7C0.327,-0.7 0.379,-0.693 0.426,-0.679C0.473,-0.664 0.514,-0.643 0.548,-0.614C0.582,-0.585 0.608,-0.548 0.627,-0.504C0.646,-0.459 0.655,-0.407 0.655,-0.347ZM0.278,-0.079C0.37,-0.079 0.439,-0.102 0.484,-0.15C0.529,-0.197 0.552,-0.262 0.552,-0.347C0.552,-0.432 0.529,-0.498 0.484,-0.545C0.439,-0.592 0.37,-0.615 0.278,-0.615C0.251,-0.615 0.23,-0.615 0.215,-0.614C0.2,-0.613 0.189,-0.613 0.183,-0.612L0.183,-0.082C0.189,-0.081 0.2,-0.081 0.215,-0.08C0.23,-0.079 0.251,-0.079 0.278,-0.079Z" style="fill:rgb(245,245,245);fill-rule:nonzero;"/>
                    </g>
                    <g transform="matrix(36,0,0,36,741.32,883.376)">
                        <rect x="0.086" y="-0.693" width="0.097" height="0.693" style="fill:rgb(245,245,245);fill-rule:nonzero;"/>
                    </g>
                    <g transform="matrix(36,0,0,36,751.004,883.376)">
                        <path d="M0.561,-0C0.546,-0.025 0.53,-0.052 0.511,-0.083C0.492,-0.114 0.471,-0.146 0.449,-0.179C0.427,-0.212 0.404,-0.245 0.381,-0.279C0.357,-0.313 0.333,-0.346 0.31,-0.378C0.287,-0.409 0.264,-0.439 0.242,-0.467C0.22,-0.495 0.2,-0.52 0.181,-0.541L0.181,-0L0.086,-0L0.086,-0.693L0.163,-0.693C0.194,-0.66 0.228,-0.621 0.264,-0.577C0.299,-0.532 0.335,-0.487 0.37,-0.44C0.405,-0.393 0.438,-0.346 0.469,-0.301C0.5,-0.256 0.526,-0.215 0.547,-0.18L0.547,-0.693L0.642,-0.693L0.642,-0L0.561,-0Z" style="fill:rgb(245,245,245);fill-rule:nonzero;"/>
                    </g>
                    <g transform="matrix(36,0,0,36,777.212,883.376)">
                        <path d="M0.509,-0.341L0.606,-0.341L0.606,-0.017C0.598,-0.014 0.587,-0.011 0.572,-0.008C0.557,-0.005 0.539,-0.001 0.52,0.002C0.5,0.005 0.478,0.008 0.455,0.011C0.432,0.013 0.408,0.014 0.384,0.014C0.335,0.014 0.291,0.006 0.251,-0.01C0.211,-0.026 0.177,-0.049 0.148,-0.08C0.119,-0.111 0.097,-0.148 0.082,-0.193C0.066,-0.238 0.058,-0.289 0.058,-0.347C0.058,-0.405 0.067,-0.456 0.085,-0.502C0.102,-0.547 0.126,-0.584 0.156,-0.615C0.186,-0.646 0.221,-0.669 0.262,-0.685C0.302,-0.701 0.345,-0.709 0.391,-0.709C0.422,-0.709 0.45,-0.707 0.475,-0.703C0.499,-0.699 0.52,-0.694 0.537,-0.689C0.554,-0.684 0.569,-0.678 0.58,-0.673C0.591,-0.668 0.598,-0.664 0.602,-0.661L0.571,-0.58C0.552,-0.593 0.526,-0.603 0.494,-0.612C0.462,-0.62 0.429,-0.624 0.396,-0.624C0.361,-0.624 0.329,-0.618 0.3,-0.605C0.271,-0.592 0.246,-0.574 0.226,-0.55C0.205,-0.526 0.189,-0.497 0.178,-0.463C0.167,-0.428 0.161,-0.39 0.161,-0.347C0.161,-0.306 0.166,-0.268 0.176,-0.234C0.185,-0.2 0.2,-0.171 0.22,-0.147C0.239,-0.122 0.264,-0.103 0.293,-0.09C0.322,-0.077 0.356,-0.07 0.395,-0.07C0.423,-0.07 0.447,-0.072 0.467,-0.075C0.486,-0.078 0.5,-0.08 0.509,-0.083L0.509,-0.341Z" style="fill:rgb(245,245,245);fill-rule:nonzero;"/>
                    </g>
                </g>
            </g>
        </g>
        <g transform="matrix(3.75,0,0,3.75,-1410,-48.75)">
            <g transform="matrix(1.25867,0,0,0.0833333,400,150)">
                <rect x="0" y="0" width="225" height="600" style="fill:rgb(51,51,51);"/>
            </g>
            <g transform="matrix(0.882976,0,0,1,49.7353,1.42109e-14)">
                <g transform="matrix(0.0625,0,0,0.440933,421.5,-20.5537)">
                    <path d="M368,430.96C368,428.774 353.788,427 336.283,427L87.717,427C70.212,427 56,428.774 56,430.96L56,456.04C56,458.226 70.212,460 87.717,460L336.283,460C353.788,460 368,458.226 368,456.04L368,430.96ZM120.172,435.012L120.172,451.988L303.828,451.988L303.828,435.012L120.172,435.012Z" style="fill:rgb(245,245,245);"/>
                </g>
                <g transform="matrix(0.628632,0,0,0.30303,429.797,40.6061)">
                    <path d="M368,435.25C368,430.697 365.977,427 363.485,427L60.515,427C58.023,427 56,430.697 56,435.25L56,451.75C56,456.303 58.023,460 60.515,460L363.485,460C365.977,460 368,456.303 368,451.75L368,435.25Z" style="fill:rgb(245,245,245);"/>
                </g>
            </g>
        </g>
        <g transform="matrix(2.37619,0,0,3.75,-860.475,-3.75)">
            <g transform="matrix(1.18109,0,0,0.454545,333.859,-95.0909)">
                <path d="M368,435.25C368,430.697 365.749,427 362.977,427L61.023,427C58.251,427 56,430.697 56,435.25L56,451.75C56,456.303 58.251,460 61.023,460L362.977,460C365.749,460 368,456.303 368,451.75L368,435.25Z" style="fill:rgb(245,245,245);"/>
            </g>
            <g transform="matrix(1.18109,0,0,1.51515,333.859,-621.97)">
                <path d="M368,430.96C368,428.774 364.399,427 359.963,427L64.037,427C59.601,427 56,428.774 56,430.96L56,456.04C56,458.226 59.601,460 64.037,460L359.963,460C364.399,460 368,458.226 368,456.04L368,430.96Z" style="fill:rgb(245,245,245);"/>
            </g>
        </g>
    </g>
</svg>
