<?xml version="1.0" encoding="UTF-8" standalone="no"?><!-- Generator: Gravit.io --><svg xmlns="http://www.w3.org/2000/svg" xmlns:xlink="http://www.w3.org/1999/xlink" style="isolation:isolate" viewBox="0 0 800 450" width="800pt" height="450pt"><defs><clipPath id="_clipPath_gsRLUePup1sh5D8pzY0uwZEFLnsIzeYG"><rect width="800" height="450"/></clipPath></defs><g clip-path="url(#_clipPath_gsRLUePup1sh5D8pzY0uwZEFLnsIzeYG)"><g><g><g><path d=" M 151.319 251.003 L 50.606 150.289 C 42.066 141.748 28.22 141.749 19.678 150.289 C 11.136 158.83 11.136 172.676 19.678 181.217 L 135.855 297.393 C 144.393 305.933 158.249 305.927 166.783 297.393 L 151.319 251.003 Z " fill="rgb(255,159,28)"/></g></g></g><path d=" M 54.543 352.35 L 54.543 69.116 L 173.906 69.116 L 173.906 69.116 Q 218.818 69.116 253.616 86.92 L 253.616 86.92 L 253.616 86.92 Q 288.413 104.723 307.632 136.89 L 307.632 136.89 L 307.632 136.89 Q 326.852 169.057 326.852 210.733 L 326.852 210.733 L 326.852 210.733 Q 326.852 252.409 307.632 284.576 L 307.632 284.576 L 307.632 284.576 Q 288.413 316.744 253.616 334.547 L 253.616 334.547 L 253.616 334.547 Q 218.818 352.35 173.906 352.35 L 173.906 352.35 L 54.543 352.35 Z  M 95.005 317.148 L 171.478 317.148 L 171.478 317.148 Q 205.871 317.148 231.968 303.796 L 231.968 303.796 L 231.968 303.796 Q 258.066 290.443 272.228 266.368 L 272.228 266.368 L 272.228 266.368 Q 286.39 242.294 286.39 210.733 L 286.39 210.733 L 286.39 210.733 Q 286.39 179.173 272.228 155.098 L 272.228 155.098 L 272.228 155.098 Q 258.066 131.023 231.968 117.671 L 231.968 117.671 L 231.968 117.671 Q 205.871 104.318 171.478 104.318 L 171.478 104.318 L 95.005 104.318 L 95.005 317.148 Z " fill="rgb(1,22,39)"/><g><g><g><path d=" M 380.383 52.864 C 371.843 44.323 355.299 47.021 346.757 55.562 L 151.319 251.003 Q 158.249 305.927 166.783 297.393 L 380.261 83.915 C 388.803 75.374 388.924 61.405 380.383 52.864 Z " fill="rgb(255,159,28)"/></g></g></g><path d=" M 421.2 190.085 L 421.2 190.085 Q 454.2 190.085 471.75 206.285 L 471.75 206.285 L 471.75 206.285 Q 489.3 222.485 489.3 254.585 L 489.3 254.585 L 489.3 350.585 L 462 350.585 L 462 329.585 L 462 329.585 Q 454.8 340.685 441.45 346.535 L 441.45 346.535 L 441.45 346.535 Q 428.1 352.385 409.8 352.385 L 409.8 352.385 L 409.8 352.385 Q 383.1 352.385 367.05 339.485 L 367.05 339.485 L 367.05 339.485 Q 351 326.585 351 305.585 L 351 305.585 L 351 305.585 Q 351 284.585 366.3 271.835 L 366.3 271.835 L 366.3 271.835 Q 381.6 259.085 414.9 259.085 L 414.9 259.085 L 460.5 259.085 L 460.5 253.385 L 460.5 253.385 Q 460.5 234.785 449.7 224.885 L 449.7 224.885 L 449.7 224.885 Q 438.9 214.985 417.9 214.985 L 417.9 214.985 L 417.9 214.985 Q 403.8 214.985 390.3 219.635 L 390.3 219.635 L 390.3 219.635 Q 376.8 224.285 367.5 232.085 L 367.5 232.085 L 355.5 210.485 L 355.5 210.485 Q 367.8 200.585 384.9 195.335 L 384.9 195.335 L 384.9 195.335 Q 402 190.085 421.2 190.085 L 421.2 190.085 Z  M 414.6 330.185 L 414.6 330.185 Q 431.1 330.185 443.1 322.835 L 443.1 322.835 L 443.1 322.835 Q 455.1 315.485 460.5 301.985 L 460.5 301.985 L 460.5 279.785 L 416.1 279.785 L 416.1 279.785 Q 379.5 279.785 379.5 304.385 L 379.5 304.385 L 379.5 304.385 Q 379.5 316.385 388.8 323.285 L 388.8 323.285 L 388.8 323.285 Q 398.1 330.185 414.6 330.185 L 414.6 330.185 Z  M 652.2 191.585 L 680.4 191.585 L 603.3 366.485 L 603.3 366.485 Q 593.1 390.785 579.45 400.685 L 579.45 400.685 L 579.45 400.685 Q 565.8 410.585 546.6 410.585 L 546.6 410.585 L 546.6 410.585 Q 534.9 410.585 523.95 406.835 L 523.95 406.835 L 523.95 406.835 Q 513 403.085 505.8 395.885 L 505.8 395.885 L 518.1 374.285 L 518.1 374.285 Q 530.4 385.985 546.6 385.985 L 546.6 385.985 L 546.6 385.985 Q 557.1 385.985 564.15 380.435 L 564.15 380.435 L 564.15 380.435 Q 571.2 374.885 576.9 361.385 L 576.9 361.385 L 582 350.285 L 511.8 191.585 L 541.8 191.585 L 597.3 318.785 L 652.2 191.585 Z  M 707.4 350.585 L 707.4 127.985 L 736.2 127.985 L 736.2 350.585 L 707.4 350.585 Z " fill="rgb(1,22,39)"/></g></svg>