<?xml version="1.0" encoding="UTF-8" standalone="no"?><!-- Generator: Gravit.io --><svg xmlns="http://www.w3.org/2000/svg" xmlns:xlink="http://www.w3.org/1999/xlink" style="isolation:isolate" viewBox="0 0 400 400" width="400pt" height="400pt"><defs><clipPath id="_clipPath_WckpQK2sNVdTsPaHquiI1UysTQLcQjIs"><rect width="400" height="400"/></clipPath></defs><g clip-path="url(#_clipPath_WckpQK2sNVdTsPaHquiI1UysTQLcQjIs)"><g><g><g><path d=" M 151.319 251.003 L 50.606 150.289 C 42.066 141.748 28.22 141.749 19.678 150.289 C 11.136 158.83 11.136 172.676 19.678 181.217 L 135.855 297.393 C 144.393 305.933 158.249 305.927 166.783 297.393 L 151.319 251.003 Z " fill="rgb(255,159,28)"/></g></g></g><path d=" M 54.543 352.35 L 54.543 69.116 L 173.906 69.116 L 173.906 69.116 Q 218.818 69.116 253.616 86.92 L 253.616 86.92 L 253.616 86.92 Q 288.413 104.723 307.632 136.89 L 307.632 136.89 L 307.632 136.89 Q 326.852 169.057 326.852 210.733 L 326.852 210.733 L 326.852 210.733 Q 326.852 252.409 307.632 284.576 L 307.632 284.576 L 307.632 284.576 Q 288.413 316.744 253.616 334.547 L 253.616 334.547 L 253.616 334.547 Q 218.818 352.35 173.906 352.35 L 173.906 352.35 L 54.543 352.35 Z  M 95.005 317.148 L 171.478 317.148 L 171.478 317.148 Q 205.871 317.148 231.968 303.796 L 231.968 303.796 L 231.968 303.796 Q 258.066 290.443 272.228 266.368 L 272.228 266.368 L 272.228 266.368 Q 286.39 242.294 286.39 210.733 L 286.39 210.733 L 286.39 210.733 Q 286.39 179.173 272.228 155.098 L 272.228 155.098 L 272.228 155.098 Q 258.066 131.023 231.968 117.671 L 231.968 117.671 L 231.968 117.671 Q 205.871 104.318 171.478 104.318 L 171.478 104.318 L 95.005 104.318 L 95.005 317.148 Z " fill="rgb(1,22,39)"/><g><g><g><path d=" M 380.383 52.864 C 371.843 44.323 355.299 47.021 346.757 55.562 L 151.319 251.003 Q 158.249 305.927 166.783 297.393 L 380.261 83.915 C 388.803 75.374 388.924 61.405 380.383 52.864 Z " fill="rgb(255,159,28)"/></g></g></g></g></svg>